<svg xmlns="http://www.w3.org/2000/svg" data-name="Layer 1" viewBox="0 0 98.14 98.14" x="0px" y="0px"><title>Untitled-31</title><path d="M49.93.2A49.07,49.07,0,1,0,99,49.27,49.07,49.07,0,0,0,49.93.2ZM18.62,38.92A18.67,18.67,0,0,1,36.86,19.83a18.39,18.39,0,0,1,9.59,2.55,21.55,21.55,0,0,0-5.94,8.79,11.29,11.29,0,0,0-3.94-.06A14.78,14.78,0,0,0,24,44.18a14.37,14.37,0,0,0,2.29,9.1A18.46,18.46,0,0,1,18.62,38.92ZM42.67,68.29a.55.55,0,0,1-1.1,0V60.92a.55.55,0,0,1,1.1,0ZM46,78.17a.55.55,0,0,1-1.1,0V70.8a.55.55,0,0,1,1.1,0Zm4.39-9.88a.55.55,0,0,1-1.1,0V60.92a.55.55,0,0,1,1.1,0Zm3.29,9.88a.55.55,0,0,1-1.1,0V70.8a.55.55,0,1,1,1.1,0ZM58,68.29a.55.55,0,0,1-1.1,0V60.92a.55.55,0,0,1,1.1,0Zm3.29,9.88a.55.55,0,0,1-1.1,0V70.8a.55.55,0,0,1,1.1,0Zm3.29-9.88a.55.55,0,0,1-1.1,0V60.92a.55.55,0,0,1,1.1,0Zm-2.72-9.51H39.45a12.26,12.26,0,1,1,0-24.52,11.27,11.27,0,0,1,3.65.68,19.34,19.34,0,1,1,18.8,23.84Z" transform="translate(-0.86 -0.2)"></path></svg>