<svg xmlns="http://www.w3.org/2000/svg" data-name="Layer 1" viewBox="0 0 98.14 98.14" x="0px" y="0px"><title>Untitled-33</title><path d="M49.93.2A49.07,49.07,0,1,0,99,49.27,49.07,49.07,0,0,0,49.93.2ZM18.62,43.11A18.67,18.67,0,0,1,36.86,24a18.39,18.39,0,0,1,9.59,2.55,21.55,21.55,0,0,0-5.94,8.79,11.3,11.3,0,0,0-3.94-.06A14.78,14.78,0,0,0,24,48.37a14.37,14.37,0,0,0,2.29,9.1A18.46,18.46,0,0,1,18.62,43.11ZM43.49,69a1.32,1.32,0,1,1,1.32-1.32A1.32,1.32,0,0,1,43.49,69Zm3.29,5.49a1.32,1.32,0,1,1,1.32-1.32A1.32,1.32,0,0,1,46.78,74.53ZM51.18,69a1.32,1.32,0,1,1,1.32-1.32A1.32,1.32,0,0,1,51.18,69Zm3.29,5.49a1.32,1.32,0,1,1,1.32-1.32A1.32,1.32,0,0,1,54.47,74.53ZM57.76,69a1.32,1.32,0,1,1,1.32-1.32A1.32,1.32,0,0,1,57.76,69Zm4.39,5.49a1.32,1.32,0,1,1,1.32-1.32A1.32,1.32,0,0,1,62.15,74.53ZM65.45,69a1.32,1.32,0,1,1,1.32-1.32A1.32,1.32,0,0,1,65.45,69Zm-3.54-6.3H39.46a12.26,12.26,0,1,1,0-24.52,11.27,11.27,0,0,1,3.65.68,19.34,19.34,0,1,1,18.8,23.84Z" transform="translate(-0.86 -0.2)"></path></svg>