<svg xmlns="http://www.w3.org/2000/svg" xmlns:xlink="http://www.w3.org/1999/xlink" viewBox="0 0 1035.39 1000.01"><defs><style>.cls-1{fill:none;}.cls-2{clip-path:url(#clip-path);}.cls-3{fill:#161616;}.cls-4{fill:#caf2fb;}.cls-5{fill:#6edaf4;}.cls-6{fill:#bebebe;}.cls-7{fill:#fefefe;}.cls-8{fill:#bdb401;}.cls-9{fill:#3c2f2a;opacity:0.18;}</style><clipPath id="clip-path"><path class="cls-1" d="M514.91,994.65c273,0,494.65-221.65,494.65-494.65S787.92,5.35,514.91,5.35,20.26,227,20.26,500,241.9,994.65,514.91,994.65Z"/></clipPath></defs><title>Augmented-Reality</title><g id="Layer_2" data-name="Layer 2"><g id="Augmented_Reality" data-name="Augmented Reality"><g class="cls-2"><path class="cls-3" d="M871.83,591.5l-.15.17a4.54,4.54,0,0,0,.64.46q-.1-.51-.17-1l-.32.4Z"/><path class="cls-4" d="M16,533.27a497.14,497.14,0,0,0,85.8,248.34A504.22,504.22,0,0,0,296.43,949.8,497.52,497.52,0,0,0,514.91,1000a505.79,505.79,0,0,0,134.57-18.35,498.38,498.38,0,0,0,120.71-51.73,503.1,503.1,0,0,0,179.9-183.68,499.16,499.16,0,0,0-10.67-510.44A504.59,504.59,0,0,0,752,59.75,497.59,497.59,0,0,0,628.76,13a500.38,500.38,0,0,0-559,259.11A497.64,497.64,0,0,0,14.91,500q0,16.67,1.09,33.3Zm13.82-98a487,487,0,0,1,97.28-233.6l-.07.09.09-.11.75-1-.47.61A491.42,491.42,0,0,1,325,48.94a496.39,496.39,0,0,1,125.2-34,504.37,504.37,0,0,1,129.42,0,487,487,0,0,1,233.63,97.3,503,503,0,0,1,89.16,89.08l-.47-.61.75,1,.09.11-.07-.09A487,487,0,0,1,1000,435.29a504.35,504.35,0,0,1,0,129.42,487,487,0,0,1-97.68,234.11,503.06,503.06,0,0,1-88.7,88.68l.61-.47-1,.75-.11.09.09-.07a487,487,0,0,1-233.61,97.28,500.5,500.5,0,0,1-129.4,0A487,487,0,0,1,216.08,887.4,491.41,491.41,0,0,1,63.85,689.9a496.31,496.31,0,0,1-34-125.19,504.35,504.35,0,0,1,0-129.42ZM127,798.22l.45.58-.45-.58Zm.56.72.28.37-.28-.37Zm88,88.09.34.26-.34-.26Zm.51.4.57.44-.57-.44ZM813.37,112.31l.85.65-.85-.65Zm88.57,687,.32-.41-.32.41Zm.38-.5.45-.58-.45.58Zm.39-597.12,0,0-.28-.36.3.39Zm-89.47,686.1.36-.28-.39.3,0,0ZM127.41,201.3l-.28.36,0,0,.3-.39Z"/><path class="cls-4" d="M514.91,994.65c273,0,494.65-221.65,494.65-494.65S787.92,5.35,514.91,5.35,20.26,227,20.26,500,241.9,994.65,514.91,994.65Z"/><path class="cls-5" d="M49.73,201.35V789.07a5.41,5.41,0,0,0,5.36,5.36H960.9a5.41,5.41,0,0,0,5.36-5.36V201.35A5.41,5.41,0,0,0,960.9,196H55.09a5.41,5.41,0,0,0-5.36,5.36Zm10.73,226V206.71H955.53v577H60.46V427.4Z"/><path class="cls-5" d="M7.26,201.35H1034.13V789.07H7.26V201.35Z"/><path class="cls-3" d="M583.16,476.14a4.78,4.78,0,1,0-4.78-4.78,4.82,4.82,0,0,0,4.78,4.78Z"/><path class="cls-3" d="M578.57,474.7c.52.88,1,1.77,1.58,2.63a25.93,25.93,0,0,0,2.06,2.84,8.56,8.56,0,0,0,3.78,2.31,9.16,9.16,0,0,0,4.4,0,7.92,7.92,0,0,0,3.43-2,7.08,7.08,0,0,0,2.07-3.83,11.55,11.55,0,0,0,0-4.65,13.81,13.81,0,0,0-1-2.87,10.72,10.72,0,0,0-4.07-4.45,8.5,8.5,0,0,0-8.9.08,7.28,7.28,0,0,0-.74.52l-.08,0a6.93,6.93,0,0,0-3.37,6,6.67,6.67,0,0,0,.92,3.4Z"/><path class="cls-6" d="M1003.42,728c-.73-4.63-4.83-12-8.36-15.15a65.55,65.55,0,0,0-8.23-6.38,40.11,40.11,0,0,0-5.36-2.75c-4.15-1.88-8.15-4-12.24-6-7.86-3.87-15.74-7.75-23.74-11.31-6-2.66-12-5.55-18.36-7.3-4.52-1.25-9.09-2.37-13.56-3.8-4.29-1.37-8.58-2.87-12.92-4.09-2.18-.61-4.34-1.28-6.56-1.75l-.8-.17-4.35-3c-6.95-4.83-14.14-9.28-21.17-14-7.68-5.16-15.19-10.57-22.87-15.72-7-4.67-14-9.3-21.3-13.5q-3.39-2-6.81-3.86c-.9-.76-1.81-1.51-2.71-2.28-13.15-11.19-26.4-22.24-39.26-33.76-6.54-5.86-12.94-11.89-19.58-17.62-8.62-7.45-17.79-14.19-27.07-20.8-6.82-4.86-13.46-10-20.32-14.76-5.81-4.05-11.79-7.81-17.58-11.87-5.58-4.64-11-9.4-16.5-14.17a22.22,22.22,0,0,0-2.61-7.05c-2.75-4.7-7.84-9.13-13.32-10.24-6.89-1.4-13.95-1.78-20.92-2.56-4.46-.63-8.93-1.22-13.43-1.58-4.19-.34-8.39-.59-12.58-.91-8.3-.62-16.58-1.34-24.88-1.84a213,213,0,0,0-25.66-.35c-8.58.52-17.06,1.71-25.6,2.69-16.84,1.94-33.69,1.73-50.61,1.35q-12.51-.28-25-1c-8.3-.47-16.58-1-24.89-.44-7.66.48-15.26,1.55-22.86,2.66l-6.4,2.71a26.86,26.86,0,0,0-9.62,9.62c-.09.15-.17.32-.26.47a23.67,23.67,0,0,0-7.05,2.71c-4.13,1.84-8,4.18-12,6.38-3.51,2-6.95,4.08-10.33,6.27q-11.3,7.33-23.1,13.83c-16.32,9-32.57,18.15-48.64,27.61s-32,18.76-48,28.09c-12.94,6.13-25.72,12.61-38.59,18.89-29.74,14.5-59.72,28.6-88.33,45.24a26.35,26.35,0,0,0-19.27,3c-7,4.2-13.57,9-20.15,13.75q-1.38.19-2.77.49c-5.9,1.3-11.2,5-16.11,8.37-1.88,1.29-3.76,2.7-5.6,4.14-2.3,1-4.64,2-6.92,3.1-9.77,4.62-20.2,11.4-22.48,22.78a16.22,16.22,0,0,0-.84,5.11,15.52,15.52,0,0,0,.15,2.13q.4,3,.81,6a58.62,58.62,0,0,0,2.8,6.47c.92,1.85,3.47,4.64,5.18,6.45a26.75,26.75,0,0,0,3,2.54,27.36,27.36,0,0,0-3.61,32.5,28.32,28.32,0,0,0,17.55,12.92,28.49,28.49,0,0,0,3.87,13.34,29,29,0,0,0,10.35,10.35A27.53,27.53,0,0,0,74,803.19c0,.51-.08,1-.08,1.54a17.42,17.42,0,0,0,2.37,8.79c2,3.47,6.19,7.39,10.38,8l2,.27a27.89,27.89,0,0,0,6.06,2.5l7.31,1a27.69,27.69,0,0,0,6.94-.89q6.83.79,13.68,1.48c9.92,1,19.88,1.46,29.83,2,9.2.46,18.42.48,27.62.46,9.86,0,19.71.15,29.56.29,9.2.13,18.41.79,27.6,1.15,10,.39,20,.48,30,.51,9.74,0,19.47-.09,29.2.09s19.15.5,28.73.81c5.2.17,10.39.23,15.58.35,5,.12,10-.35,15-.55,8.7-.34,17.36-1.16,26.06-1.42,9.77-.3,19.49-.36,29.27-.2,10.39.17,20.72.2,31.11,0,19.51-.38,39-1.82,58.5-2.55,18.36-.68,36.79-1.78,55.09-3.53,19.69-1.89,39.38-4,59.12-5.23,19.48-1.26,39-1.71,58.51-2.29,9.06-.27,18.17-1.06,27.2-1.85,10.49-.92,21-1.8,31.5-2.58,18.79-1.4,37.63-2,56.47-1.59,19.68.44,39.31,1.51,59,2.35,9.72.41,19.45.79,29.16,1.21,10.12.44,20.16,1,30.25-.06,6.75-.68,13.46-1.73,20.21-2.44q4.69-.5,9.38-1.05c1.53,0,3.06-.06,4.6-.17a37.83,37.83,0,0,0,17.07-4c5-2.05,10-5.14,13.28-8.93a34,34,0,0,0,8.77-15.05l.57-4.26a31.2,31.2,0,0,0,2.79-2.46,32.13,32.13,0,0,0,8.55-15.46,29,29,0,0,0,8.35-9l2.91-6.9A29,29,0,0,0,1003.42,728ZM465.71,548.35l.11-.15.82,1.2c-.56-.05-1.11-.1-1.67-.11ZM305.33,753.82a27,27,0,0,0,9.45,2.11,35.5,35.5,0,0,0,9.48.66,47.67,47.67,0,0,0,13.87-3.09c2.93-1.18,5.8-2.38,8.62-3.72q1.28.49,2.62.87c.51.14,1,.26,1.53.37,0,.13.06.27.09.4l1,2.4c-21.24,2.35-42.47,4.8-63.64,7.65C294.09,759.07,299.7,756.41,305.33,753.82ZM254.46,682.6a24,24,0,0,0-.14,6.86l-.88-.54a25.44,25.44,0,0,0-5.59-2.39Zm-26.1,79.88c3.66-2.55,7.48-4.91,11.29-7.26a24.49,24.49,0,0,0,10.54,11.15l-1.43.17c-5.88.7-11.84.86-17.74,1.24-3.77.23-7.52.54-11.28.68Z"/><path class="cls-7" d="M230,428.06c1.4-.14,2.8-.29,4.2-.47l-.41.05a22.35,22.35,0,0,0,4.75-.92l.93-.35a7.05,7.05,0,0,0,4-1.11c.36-.24.72-.46,1.06-.72h0a7.2,7.2,0,0,0,1.57-1.2,7.54,7.54,0,0,0,2.24-5.4.31.31,0,0,0,0-.08,7.69,7.69,0,0,0-1.06-3.94,7.6,7.6,0,0,0-4.66-3.58c-1.37-.27-3.13-.63-4.51-.06a11.11,11.11,0,0,0-2.64,1.23l-1.61,1.24a7.92,7.92,0,0,0-2.33,5.63l-.74.4a13.45,13.45,0,0,1-2,.52,4.43,4.43,0,0,0-3.26,4.29c0,2.24,2,4.69,4.45,4.45Z"/><path class="cls-7" d="M503.61,587.51a5.5,5.5,0,0,0,1.41,2.41,7.34,7.34,0,0,0,2.17,1.61,12.11,12.11,0,0,0,3.43,1.1c2.78.48,5.58.65,8.37,1,3.42.58,6.78,1.38,10.23,1.8,1.33.16,2.66.3,4,.33a24.88,24.88,0,0,0,3.9-.33c2.3-.33,4.29-2.43,5.26-4.39,1.19-2.4,1.42-5,1.7-7.62.16-1.49.21-3,.24-4.51.08-3.37,0-6.74,0-10.11-.05-6.45,0-12.9.06-19.34,0-1.43.06-2.86.1-4.3a19.54,19.54,0,0,0-.24-3.41,8.28,8.28,0,0,0-.58-2.19,7,7,0,0,0-1-2.1c-.49-.67-1-1.32-1.54-1.94a17.33,17.33,0,0,0-3-2.51,21.8,21.8,0,0,0-1.84-1.24,32.66,32.66,0,0,0-6-2.8,21.85,21.85,0,0,0-2.19-.66,14.07,14.07,0,0,0-6.78-.35,10.73,10.73,0,0,0-4.53,2.66,4.68,4.68,0,0,0-3.63-1.85,4.54,4.54,0,0,0-4.47,4.47c-.14,2.4-.26,4.81-.34,7.21s-.13,4.86-.39,7.28-.77,4.58-1.19,6.86c-.59,3.2-1.06,6.41-1.47,9.64-.72,5.66-.72,11.38-1.39,17a23.61,23.61,0,0,0-.62,4.17,5.8,5.8,0,0,0,.37,2.13Zm27.72-4.34-.64-.08a17.24,17.24,0,0,0,1.09-2q.25-.52.47-1.05-.12,1.15-.26,2.29-.07.44-.14.88l-.53-.06Z"/><path class="cls-7" d="M531.17,534.6c.65,5,1.42,9.92,1.82,14.9.37,4.47.86,8.95,1,13.42.14,4.16.06,8.3.35,12.45.15,2.06.32,4.11.44,6.18.06,1,.08,2,.14,3a15.23,15.23,0,0,0,.44,2.91,10.49,10.49,0,0,0,2.32,4,6.9,6.9,0,0,0,3,1.77,7.05,7.05,0,0,0,3.66,0,6.91,6.91,0,0,0,5.05-6.64c0-.55,0-1.1,0-1.65a17.58,17.58,0,0,0-.43-3c-.11-.61-.21-1.21-.3-1.82-.8-6.84-1.22-13.72-1.86-20.58-.35-3.78-.68-7.55-1.08-11.33-.48-4.53-1.11-9.06-1.71-13.58l-.23-1.71a6.49,6.49,0,0,0-12.72,1.28,3.26,3.26,0,0,0,0,.43Z"/><path class="cls-7" d="M499,680.62c1.46,2.49,4,3.84,6.65,4.67a21.6,21.6,0,0,0,3.89.6l2.35.19c1.74.12,3.48.17,5.21.31,4.07.32,8.68.85,12.41-1l.53.34a7.91,7.91,0,0,0,4,1.09c3.33,0,7-2.41,7.68-5.85.78-4,.22-8.15.12-12.22q-.12-4.75-.14-9.49a135.58,135.58,0,0,1,1-17.91c.2-1.36.42-2.72.7-4.07.4-2,1.09-3.85,1-5.89a6.07,6.07,0,0,0-11.32-3.07l-.2.32-.49,0H532a8.38,8.38,0,0,0-.88-.59,16.23,16.23,0,0,0-4.91-1.83,39.88,39.88,0,0,0-4.71-.59,12,12,0,0,0-2.31,0,9.56,9.56,0,0,0-4.87,1.32,7.79,7.79,0,0,0-3,2,14.12,14.12,0,0,0-2,2.09,5.55,5.55,0,0,0-9.42,4c-.16,7.77-.29,15.54-.93,23.29-.32,3.83-.63,7.66-.89,11.49-.11,1.64-.21,3.27-.3,4.92,0,.29,0,.58,0,.88a9.89,9.89,0,0,0,1.17,5Z"/><path class="cls-7" d="M494.62,761.27c.15,5.25.4,10.51.64,15.76a5.86,5.86,0,0,0,11.69.49l.45.16c1.16.19,2.32.36,3.49.5.81,0,1.53,0,2.32,0,1.45-.05,2.89-.24,4.34-.38q1.88-.17,3.75-.32a22.45,22.45,0,0,0,7-1.22,8.07,8.07,0,0,0,3.55-2.07,7.93,7.93,0,0,0,.78-.91,6.83,6.83,0,0,0,6.45-5,21.17,21.17,0,0,0,.12-6.25c-.19-2.39-.44-4.77-.83-7.14-.59-3.63-1.4-7.22-2.06-10.84-.62-3.4-1.08-6.84-1.93-10.18s-2.26-6.87-5.61-8.65a35.65,35.65,0,0,0-5.13-2,31.44,31.44,0,0,0-11-1.8,53.22,53.22,0,0,0-6.32.56,14,14,0,0,0-6,1.9,10.39,10.39,0,0,0-4.28,6.85,63.12,63.12,0,0,0-.86,6.51c-.32,3.15-.51,6.32-.63,9.48-.06,1.66-.08,3.31-.08,5,0,3.19.09,6.37.19,9.55Z"/><path class="cls-7" d="M529.49,763.31a1.72,1.72,0,0,0,1.7-1.7c.59-8.73.91-17.49,1.61-26.22.08-1,.19-2,.27-3s.13-1.9.24-2.85l.33-.85A6.58,6.58,0,0,0,534,727a2.05,2.05,0,0,0-1.52-2,2.09,2.09,0,0,0-2.34,1,3.09,3.09,0,0,0-.52,1.57,8.31,8.31,0,0,0,.13,1.2c0,.22.09.44.15.67,0,2-.29,3.92-.47,5.86s-.3,4.14-.43,6.21c-.26,4.24-.48,8.48-.72,12.72-.14,2.49-.31,5-.48,7.48,0,0,0,.06,0,.1a1.71,1.71,0,0,0,1.69,1.6Z"/><path class="cls-7" d="M516.89,727.32a5.58,5.58,0,0,0,2.55,3.31,5.76,5.76,0,0,0,4.27.56c1.16-.25,2.32-.49,3.49-.69l1.1-.1c.18,3,.22,6,.4,9.05.22,3.69.45,7.38.65,11.07.19,3.53.26,7.05.39,10.58.06,1.71.17,3.42.28,5.13a32,32,0,0,0,.39,3.51,11.34,11.34,0,0,0,1.3,3.58,5,5,0,0,0,5.67,2.31,5.13,5.13,0,0,0,3.69-4.84,65.76,65.76,0,0,0-.05-7c-.06-2.1-.12-4.2-.24-6.3-.26-4.63-.55-9.27-.91-13.9-.19-2.46-.4-4.91-.59-7.36-.24-3-.41-6-.83-9-.06-.52-.15-1.05-.25-1.57a9.32,9.32,0,0,0-.92-2.3,5.22,5.22,0,0,0-1.34-1.64l-1-.79-1.53-.64a7.17,7.17,0,0,0-1.24-.27c-1-.19-1.93-.3-2.89-.4a27.31,27.31,0,0,0-8.47,1,5.51,5.51,0,0,0-4.06,5.43,5.26,5.26,0,0,0,.18,1.39Z"/><path class="cls-7" d="M503.47,769.57a7.66,7.66,0,0,0,3.65,4.74,25.5,25.5,0,0,0,3.69,1.44,27.37,27.37,0,0,0,2.91.39,19.68,19.68,0,0,0,2.31.1c1.44,0,2.87.15,4.31.31,2,.32,4.05.71,6.07,1.09a46.24,46.24,0,0,0,8.68.79,6.88,6.88,0,0,0,0-13.77c-1.22,0-2.41,0-3.61-.13a82.35,82.35,0,0,1-8.52-2.36c-1.5-.48-3-.91-4.53-1.32-1.71-.45-3.49-.61-5.2-1.06a8,8,0,0,0-9.77,9.77Z"/><path class="cls-7" d="M498.54,683.23a4,4,0,0,0,.74,2.13,2.56,2.56,0,0,0,1.89,2.19,3.07,3.07,0,0,0,1.53,0,5,5,0,0,0,.83.43,2.16,2.16,0,0,0,2.89-.76,2.26,2.26,0,0,0,.12-1.93,2,2,0,0,0,.24-.95,2.16,2.16,0,0,0-.22-.94,3.17,3.17,0,0,0,.09-2,3.38,3.38,0,0,0-4.1-2.33c-1.83.48-4,1.76-4,3.92,0,.06,0,.13,0,.19Z"/><path class="cls-7" d="M528,583.81c.13,1.07.26,2.14.43,3.2a14.38,14.38,0,0,0,1,3.42,6.64,6.64,0,0,0,1.84,2.51,6.06,6.06,0,0,0,3.95,1.44,7.92,7.92,0,0,0,3.69-1.15c.21-.12.42-.25.62-.38a4,4,0,0,0,.23.34,2.8,2.8,0,0,0,1,1,1.24,1.24,0,0,0,.47.3,4.67,4.67,0,0,0,1.8.46,7.54,7.54,0,0,0,1.37-.13,4.26,4.26,0,0,0,1.05-.38,2.26,2.26,0,0,0,.28.2,3.56,3.56,0,0,0,1.64.43,2.75,2.75,0,0,0,1.67-.57,3,3,0,0,0,1.65-.85l.48-.61a3,3,0,0,0,.41-1.54,5.45,5.45,0,0,0,0-1,3.86,3.86,0,0,0-1-2.8,3.13,3.13,0,0,0-2.15-.89,3,3,0,0,0-2.62,1.5,5.31,5.31,0,0,0-.25.58,2.74,2.74,0,0,0-.89.17c-.18.07-.35.15-.51.23a9.45,9.45,0,0,0-.78-1.59,3.75,3.75,0,0,0-2.08-1.6,1.82,1.82,0,0,0-.94-.08l-.75.1-.86.37a5.43,5.43,0,0,0-.75.52l-.48.34a17.63,17.63,0,0,1-1.86,1.12l-.42.12h-.07l-.14-.14a6.27,6.27,0,0,1-.32-.56q-.1-.29-.19-.58a1,1,0,0,0,.81-.28,1,1,0,0,0,0-1.36l-.55-.69a3.92,3.92,0,0,1-.27-.42l0-.14v-.12a1.45,1.45,0,0,0-.22-1,1.41,1.41,0,0,0-.32-.35A2.55,2.55,0,0,0,534,582a2.51,2.51,0,0,0-.75-1.81c-.21-.17-.41-.34-.63-.5l-.76-.32a3.28,3.28,0,0,0-1.64,0,5.32,5.32,0,0,0-.82.34l-.7.54a3.61,3.61,0,0,0-.52.7,3,3,0,0,0-.41,1.5c0,.07,0,.15,0,.22a6.44,6.44,0,0,0,.16,1.15Zm6.75,4.6.27.12-.27-.12Zm6.79,3,.45-.34-.45.34Z"/><path class="cls-7" d="M502.14,591.93a2.06,2.06,0,0,0,.93,1.2,3.13,3.13,0,0,0,.81.3,6,6,0,0,0,1.48,0l3.16-.22a2,2,0,0,0,2-2,2,2,0,0,0-2-2l-.73.05a2.43,2.43,0,0,0,0-.3,2.32,2.32,0,0,0-4-1.64,3,3,0,0,0-.81,1.35,2.59,2.59,0,0,0-.06.44c-.16.19-.32.37-.47.57a2.41,2.41,0,0,0-.5,1.44,2,2,0,0,0,.14.75Zm3.53-.23.11,0-.11,0Z"/><path class="cls-8" d="M675.63,499.21c2.17.7,4.34,1.37,6.53,2,2,.6,3.94,1.23,5.84,2,2.45,1.1,4.85,2.32,7.25,3.52,2.75,1.37,5.57,2.62,8.22,4.19a1.91,1.91,0,0,0,1.93-3.31,33.86,33.86,0,0,0-3.3-1.86c-.86-.43-1.74-.82-2.61-1.22-1.69-.77-3.39-1.52-5.09-2.27s-3.58-1.59-5.41-2.29-3.53-1.24-5.33-1.78c-2.39-.73-4.78-1.46-7.16-2.24a1.67,1.67,0,0,0-2,1.16,1.64,1.64,0,0,0-.06.44,1.7,1.7,0,0,0,1.22,1.59Z"/><path class="cls-8" d="M770.81,569.74l-.1-.08-2.68-2Z"/><path class="cls-8" d="M1035.39,548.08a28.37,28.37,0,0,0-3.81-13.86,38.17,38.17,0,0,0-6.26-7.93l-1-1a24.52,24.52,0,0,0,.33-3.95c.3-2.88-.45-5.73-1-8.55s-2.3-5.63-3.59-8.32l-.15-.29c0-.26.05-.52.08-.79a16.92,16.92,0,0,0,1-2.58c2.72-9.57-3.27-19.26-12.93-22.05a53.88,53.88,0,0,0-19.27-2.34c-4.88.41-9.79.61-14.68.91-9.34.56-18.68,1.21-28,1.7-20.28,1.07-40.58,1.5-60.87,2.39-6.23.27-12.44.55-18.64,1.16-7.55.73-15.08,2-22.52,3.4-5.82,1.1-11.58,2.44-17.36,3.73-4.62,1-9.27,1.8-14,2.46-18,2-36.26,1.55-54.35,1.06-19.4-.54-38.64-2.93-58-4.67-4.27-.38-9.08,2-12,4.82a16.43,16.43,0,0,0-2.75,3.53l-1.64-.18c-.37-.08-.73-.17-1.09-.28-2-1-4-2.09-5.9-3.21a7.47,7.47,0,0,0-9.93,2.53,6.71,6.71,0,0,0-1,3.49,7.08,7.08,0,0,0,3.57,6.12c2.39,1.37,4.87,2.66,7.15,4.2,1.2,1,2.38,2.08,3.61,3.07a45.92,45.92,0,0,0,8.16,5.18c1.63.83,3.29,1.61,4.91,2.45,2,1,3.93,2.3,5.87,3.47,3.35,2,6.75,3.93,10.17,5.83s7.12,3.78,10.6,5.82,6.93,3.9,10.33,6c6.52,4,13.09,7.87,19.25,12.36,2.7,2,5.42,4,8.13,6,4.26,3.33,8.48,6.67,12.82,9.91,8,6,16.09,11.83,24.37,17.44,8,5.42,16.14,10.6,24.3,15.77,8.38,5.31,16.37,11.18,24.39,17s16,11.2,24.13,16.71q12.37,8.41,25.32,16c4.48,2.63,9,5.19,13.45,7.85,4.26,2.54,8.34,5.36,12.51,8,8.22,5.25,16.68,10.13,24.9,15.38s16.59,10.68,25,15.81q7.64,4.66,15.42,9.11c2.42,1.38,4.81,2.82,7.23,4.19,2.87,1.62,5.92,2.75,8.89,4.17a11.07,11.07,0,0,0,13.09-1.63c4-3.89,4.35-11,0-14.79a61.45,61.45,0,0,0-11.7-8l.44,0a20.58,20.58,0,0,0,14.26-5.71c7.61-7.37,8-20.27,0-27.6a54.78,54.78,0,0,0-6-4.71,20.13,20.13,0,0,0,2.35-3.12,19.85,19.85,0,0,0,2.88-10.34l-.2-1.41a20.51,20.51,0,0,0,3.91-3,19.72,19.72,0,0,0,3.24-24.29,43.18,43.18,0,0,0-5.74-7.5,21.56,21.56,0,0,0,5.12-5.78,20.88,20.88,0,0,0-1.41-23.46,24.3,24.3,0,0,0,2.95-6.12C1030.81,564.67,1035.39,556.63,1035.39,548.08ZM799.33,528.81l1.12.93-1.93-1Z"/><path class="cls-8" d="M397.73,496.48a4.86,4.86,0,0,0-5.88-3.46c-3.16.58-6.27,1.31-9.45,1.8-2.24.29-4.49.5-6.74.67a11.56,11.56,0,0,0-1-1.22c-1.84-1.9-4.94-3.57-7.64-3.27-5.58.61-11,1.74-16.59,2.67-1,.17-2.08.39-3.12.58l-3.5-.43.47.07c-8.6-1.15-17.22-1.63-25.89-2-4.49-.21-9-.24-13.48-.43s-9-.39-13.54-.57c-9-.36-18,.15-27.06.22-9.27.07-18.55,0-27.82.13-9.11.11-18.21.28-27.3.31s-18,.19-27,.41c-11.54.3-23,1.41-34.52,2.54h-.07c-5.43-.86-10.84-1.79-16.3-2.39-5.07-.56-10.19-.69-15.28-.9-9.28-.39-18.58-.38-27.82-1.41-3.2-.51-6.38-1.07-9.53-1.89-4.47-1.15-8.85-2.64-13.34-3.75-9.47-2.35-19.12-3.33-28.75-4.58L34,479.19l-5.78-.8a21,21,0,0,0-11,3.07,22.56,22.56,0,0,0-10,13.44A23.34,23.34,0,0,0,9.5,512.22l1.16,1.56a23.17,23.17,0,0,0-4.23,3.42,23.34,23.34,0,0,0,0,32.19L10.89,553a22,22,0,0,0,4.92,2.19,15.37,15.37,0,0,0-2.41,3.2,15.66,15.66,0,0,0-1.55,11.56c-1,1-2,2-3,3a18.12,18.12,0,0,0-3.19,4.49c-.89,1.67-1.92,5-1.7,6.95.14,1.38.32,2.76.52,4.13a24.21,24.21,0,0,0,2.7,5.7c.51.86,1.07,1.71,1.62,2.55.81,1.24,1.63,2.47,2.44,3.72a19.15,19.15,0,0,0-2,4.75,19.6,19.6,0,0,0,1.68,14.25q.05.33.11.67a12.4,12.4,0,0,0,2.42,5.06,14.52,14.52,0,0,0-2.06,5.36,14.81,14.81,0,0,0,.27,8c.16.46.32.88.48,1.27q-1.14.89-2.27,1.81C7,643.87,4.29,649,4.77,652.75c.37,3,.47,5.53,2,8.2l.26.44a15.74,15.74,0,0,0-2.18,4.78c-1,3.59-.79,8.83,1.51,11.95l0,.06a16.77,16.77,0,0,0-1.06,11.47,16.19,16.19,0,0,0,7.18,9.67l3.73,1.63a15.14,15.14,0,0,0,8.31,0c10-4.28,20.69-7.38,30.1-13.08a60.93,60.93,0,0,0,7.61-6c1.55-1.35,3.1-2.71,4.62-4.1,3.11-2.82,6.19-5.63,9.44-8.29l1.44-1.15c5.95-2.17,12-4.09,18-6.06a209.14,209.14,0,0,0,26.57-10.58c7.91-3.87,14.95-9.7,21.23-15.94,2.8-2.79,5.4-5.79,8.21-8.56,1.63-1.6,3.3-3.14,5-4.65q8.26-4,16.31-8.5c3-1.68,5.91-3.6,8.83-5.49,3.1-2,6.31-3.83,9.42-5.81,6-3.81,11.9-7.74,18-11.37a206.65,206.65,0,0,1,18.53-9.9c6.76-2.77,13.65-5.2,20.45-7.9,8.54-3.38,16.86-7.41,25.26-11.17,7.26-3.12,14.57-6.18,21.52-10,6.35-3.49,12.56-7.09,19.14-10.09,4.85-2.11,9.69-4.21,14.47-6.47,5-2.36,9.85-5.18,14.73-7.85s9.34-5.6,14.11-8.23c4.94-2.72,10.13-5,15-7.88a11.16,11.16,0,0,0,4.82-6.29c5.71-.9,11.44-1.71,17.09-3C396.94,502,398.4,499,397.73,496.48Z"/><path class="cls-7" d="M164.85,488.58a4.86,4.86,0,0,0,3.74.49,5.12,5.12,0,0,0,2.9-2.23c.67-1,1.36-1.91,2-2.86q1.73-2.19,3.55-4.29a3.57,3.57,0,0,0,2.79-.51,54.63,54.63,0,0,0,4.39-3.72l4-3.51c2.17-1.93,4.32-3.87,6.38-5.92s4.17-4.41,6.2-6.67l1.53-1.7c1.54-1.54,3-3.18,4.48-4.76a4.09,4.09,0,0,0,1-3.92,4,4,0,0,0-3.88-3,5.82,5.82,0,0,0-3.06,1.2c-.74.5-1.44,1.07-2.14,1.62-.3.23-.58.48-.87.73q.54-1.24,1-2.51a6.25,6.25,0,0,0-1.64-6.2l-.08-.07a6.48,6.48,0,0,0-10.06,1.3,29.08,29.08,0,0,1-1.59,2.46l-1.49,2c-1.15,1.54-2.33,3.06-3.48,4.6a39.57,39.57,0,0,0-2.93,4.4c-1,1.79-1.91,3.6-2.84,5.4-1.77,3.4-3.32,6.91-5,10.37a72.72,72.72,0,0,1-6.71,10.64,3.92,3.92,0,0,0-.7,2.29,5.21,5.21,0,0,0,2.45,4.35Zm8-3.72.23-.29-.23.29Z"/><path class="cls-7" d="M141,505.07a7.65,7.65,0,0,0,7.43,2,6.74,6.74,0,0,0,2.33-1,9.79,9.79,0,0,0,2.35-2.07c1.38-1.59,3.15-2.83,4.45-4.48a33.5,33.5,0,0,1,2.2-2.57c1-1,2.12-2,3.17-3a21.48,21.48,0,0,0,3.56-3.69,8.91,8.91,0,0,0,1-2.16c.32-.29.65-.58,1-.89a38,38,0,0,0,2.91-3.44l1.15-1.48a7.34,7.34,0,0,0-6.34-11,7,7,0,0,0-5.19,2.15,35.29,35.29,0,0,0-3.73,5.17,15.16,15.16,0,0,0-.93,2.15,17.64,17.64,0,0,0-1.79,1.4,18.47,18.47,0,0,0-2.26,2.55c-.72.85-1.54,1.61-2.27,2.45-.57.65-1.09,1.36-1.72,2-.5.37-1,.73-1.54,1.06a27.67,27.67,0,0,1-3.21,1.88h0a10.34,10.34,0,0,0-2.54,1.72,7.36,7.36,0,0,0-2.34,5.59,7.77,7.77,0,0,0,2.34,5.74Zm14.69-21.84,0-.31,0,0-.06.36Zm.06-.45,0-.13s0,.09,0,.13Z"/><path class="cls-3" d="M86.15,486.27a2.26,2.26,0,0,0,1.42,1.1c2.37.33,4.74.64,7.11.93,2.2.26,4.45.36,6.67.46,4.16.19,8.32.3,12.47.35,8.41.09,16.84.08,25.24-.13,4.07-.1,8.13-.29,12.2-.38s8.41-.11,12.61-.06,8.26.29,12.39.5c4.37.23,8.75.35,13.13.5,8.66.3,17.31.59,26,.77,8.88.19,17.77.31,26.65.49s18,.83,27,1c8.75.19,17.49.29,26.25.39,18,.22,36.06.52,54.09.57,17.73.05,35.45-.26,53.17-.11q13.81.12,27.6.15c4.27,0,8.53,0,12.8,0,4.62,0,9.25-.18,13.87-.28,4.33-.1,8.66-.11,13-.16s8.64-.23,13-.31c4.63-.09,9.28-.12,13.92-.14,4.15,0,8.31,0,12.46.11,8.71.28,17.4.86,26.09,1.41,8.9.55,17.8.77,26.71,1.1,4.26.16,8.52.35,12.78.5s8.26.21,12.4.32c9.11.24,18.22.36,27.33.57,17.85.42,35.7.56,53.55.54q13.06,0,26.13-.51c4.22-.15,8.43-.46,12.65-.57,4.69-.12,9.37-.21,14.05-.3q13.55-.28,27.09-.94c4.29-.21,8.58-.5,12.87-.7,4.64-.22,9.28-.4,13.92-.61,9-.4,18-1.13,27-1.66,4.37-.25,8.73-.49,13.09-.8,4.63-.34,9.27-.67,13.91-.92,9-.5,18.09-1,27.13-1.51,8.66-.52,17.31-1.12,26-1.68s17.08-.75,25.6-1.05c8-.28,16-.39,24-.7q3.89-.15,7.75-.55l4.31-.47q1.25-.14,2.48-.31a11.13,11.13,0,0,0,2.75-1,4.3,4.3,0,0,0,1.5-1.5,4.22,4.22,0,0,0,0-4.23,4,4,0,0,0-2.51-1.93,18.39,18.39,0,0,0-3.36-.26c-.89.05-1.78.17-2.67.26-2.15.21-4.3.34-6.45.44-3.75.18-7.5.24-11.25.28-8.32.08-16.63.14-25,.31-4.18.08-8.37.13-12.55.26s-8.51.37-12.76.61c-8.82.5-17.62,1.08-26.44,1.59-9.16.54-18.33,1-27.47,1.67s-18.29,1.22-27.43,1.88c-4.32.3-8.63.65-13,.95-4.69.32-9.39.54-14.08.79-8.91.46-17.8,1.18-26.71,1.62s-17.82.74-26.73,1c-8.54.24-17.06.93-25.6,1.1q-6.82.14-13.63.23c-4.49.06-9,0-13.47,0-9.21-.05-18.42-.17-27.63-.32-8.62-.14-17.24-.34-25.85-.37-8.81,0-17.62-.19-26.43-.27-8.55-.08-17.09-.39-25.64-.49-4.56-.06-9.12-.13-13.68-.28-4.31-.15-8.61-.4-12.92-.59-17.68-.8-35.37-.46-53,.24-4.19.17-8.39.23-12.58.3-4.55.08-9.11.24-13.66.35-8.92.2-17.85.09-26.77.06-9.11,0-18.21-.15-27.32-.2s-17.95,0-26.92,0c-17.91,0-35.81,0-53.72,0-8.66,0-17.31-.14-26-.24-8.83-.1-17.66-.09-26.49-.34-4.6-.13-9.21-.26-13.81-.35s-9,0-13.48,0q-13.1.09-26.21.08c-8.84,0-17.68-.1-26.51-.31-4.15-.1-8.29-.32-12.43-.41s-8.3,0-12.45.07c-8.33.17-16.65.57-25,.58s-16.7-.12-25-.46c-4.49-.19-9-.45-13.43-1l.63.09-4-.55A2.6,2.6,0,0,0,87,483a2.36,2.36,0,0,0-1.1,1.42,2.39,2.39,0,0,0,.24,1.83Z"/><path class="cls-3" d="M55.08,677.12a2.22,2.22,0,0,0,3.09,0c1.21-1,2.42-2,3.66-3a88.88,88.88,0,0,1,10.26-6.25c3.88-2.13,7.74-4.29,11.65-6.34,3.69-1.93,7.46-3.71,11.18-5.55s7.64-3.81,11.52-5.59c4.08-1.7,8.18-3.34,12.17-5.23,4.35-2.06,8.73-4,13.11-6,3.93-1.79,7.84-3.62,11.79-5.36,4.38-1.93,8.72-3.91,13-6,7.94-3.8,15.58-8.18,23.35-12.29,8.11-4.29,16.15-8.71,24.28-13s16.13-8.25,24.08-12.61c8.16-4.48,16.25-9.09,24.45-13.5s16.47-8.46,24.71-12.67,16.43-8.08,24.59-12.23c7.94-4,15.87-8.12,23.89-12s16-7.74,23.91-11.62q6-2.94,12.09-5.72,5.93-2.71,11.76-5.61c7.92-4,15.71-8.17,23.79-11.81q2.11-1,4.24-1.86c3.38-1.35,6.79-2.51,10.28-3.54,1.77-.52,3.53-1,5.28-1.64.82-.27,1.63-.55,2.44-.86a22.23,22.23,0,0,0,3.87-1.95,5,5,0,0,0-2.55-9.4,12.75,12.75,0,0,0-4.41.65c-1,.37-1.93.79-2.91,1.17-1.93.75-3.91,1.38-5.89,2a126.25,126.25,0,0,0-13.06,5.06c-8,3.56-15.7,7.71-23.59,11.47-3.36,1.61-6.75,3.12-10.18,4.59-4.15,1.73-8.3,3.45-12.42,5.26s-8,3.58-12.08,5.35c-8.24,3.62-16.41,7.35-24.48,11.34s-15.9,8.14-23.92,12.07q-6.3,3.08-12.59,6.19c-4.2,2.09-8.35,4.27-12.52,6.42-7.94,4.09-15.88,8.17-23.61,12.66-8.08,4.69-16.06,9.53-24.18,14.16-3.86,2.2-7.75,4.36-11.58,6.63s-7.79,4.71-11.67,7.12c-7.67,4.76-15.45,9.34-23.13,14.09-4,2.49-8,5-12.15,7.31-3.82,2.19-7.77,4.18-11.74,6.09-8.12,3.91-16.32,7.7-24.5,11.5-3.75,1.74-7.47,3.5-11.27,5.14-2.12.87-4.28,1.71-6.35,2.7s-4.11,2-6.12,3.06c-4.06,2.15-8.14,4.29-12.07,6.67s-7.55,4.74-11.31,7.14-7.81,4.72-11.51,7.38q-.94.67-1.86,1.38c-1.66,1.28-3.25,2.64-4.85,4a1.89,1.89,0,0,0-.64,1.47,2.31,2.31,0,0,0,.64,1.61ZM59.93,670l.15-.11-.44.34.3-.23Z"/><path class="cls-3" d="M652.7,494.59c4.33,3.69,8.88,7.12,13.21,10.81,4.09,3.5,8,7.25,12.14,10.64,4.6,3.75,9.32,7.32,14,10.92,4.53,3.46,9.08,6.85,13.85,10,9.5,6.23,19.27,12,28.7,18.35,4.63,3.12,9.14,6.42,13.7,9.63s9,6.6,13.53,10c9,6.74,17.84,13.69,27.11,20.06,4.79,3.29,9.59,6.57,14.36,9.88,4.54,3.15,9,6.45,13.5,9.66Q831,624.62,845.67,634.2c9.56,6.26,19,12.69,28.72,18.72,9.89,6.14,20.07,11.8,29.94,18q7.24,4.54,14.65,8.76c4.6,2.61,9.28,5,14,7.45a120.68,120.68,0,0,1,13,7.48c2.15,1.46,4.29,3,6.46,4.41a82.1,82.1,0,0,0,7.55,4.43,5.11,5.11,0,0,0,6.1-.79,5.05,5.05,0,0,0,1.48-3.56,4.83,4.83,0,0,0-1.48-3.56,212.17,212.17,0,0,0-27.42-18.19c-9.53-5.45-18.95-11-28.12-17.06-9.75-6.39-19.79-12.3-29.57-18.63-9.6-6.21-19-12.77-28.47-19.14q-14.51-9.74-28.74-19.89c-4.51-3.21-9-6.46-13.56-9.56q-7.21-4.87-14.53-9.59c-9.41-6.07-18.55-12.55-28-18.54s-19-11.68-28.36-17.68c-9.57-6.11-19.24-12-28.77-18.22-4.77-3.09-9.37-6.43-13.95-9.8s-8.93-6.48-13.32-9.81c-3.17-2.48-6.25-5.06-9.34-7.65s-6.34-5-9.56-7.42c-2.14-1.68-4.22-3.4-6.29-5.16a4,4,0,0,0-2.7-1.12,3.81,3.81,0,0,0-2.69,1.12,4,4,0,0,0-1.12,2.81,3.34,3.34,0,0,0,1.12,2.59Zm30.23,14.57,0,0,.27.21-.23-.17Z"/><path class="cls-3" d="M496.29,594.23a6.2,6.2,0,0,0,1.35,2.23,13.51,13.51,0,0,0,1.78,1.43,8.75,8.75,0,0,0,1.33.7,19.82,19.82,0,0,0,2.45.95,23,23,0,0,0,4.9.9c1.06.1,2.11.21,3.17.25,4.16.19,8.33,0,12.49.12,2,.06,4,.27,6,.46l6.51.61,5.8.53a19.63,19.63,0,0,0,7.51-.39,4.62,4.62,0,0,0,3.35-4.39,4.57,4.57,0,0,0-1.33-3.22,4.37,4.37,0,0,0-3.22-1.33,18.29,18.29,0,0,1-3-.06c-.84-.06-1.69-.1-2.53-.17-1.63-.14-3.26-.34-4.88-.53q-5.25-.62-10.51-1.16a66.19,66.19,0,0,0-9.92-.19,75.65,75.65,0,0,1-11.27,0,21.25,21.25,0,0,1-2.62-.61c0-.5,0-1,.1-1.5.69-4.38,1.44-8.74,2-13.14s.92-8.7,1.3-13.05.72-8.87,1-13.31c.12-2.15.1-4.3.11-6.45s0-4.43,0-6.65q-.08-5-.28-10a3.86,3.86,0,1,0-7.72,0c.17,4.58.28,9.15.31,13.74,0,4,.08,8-.1,12.06-.36,8.21-1.14,16.38-2.22,24.53-.51,3.73-1,7.46-1.43,11.19-.12.75-.26,1.49-.42,2.23a11.18,11.18,0,0,0-.3,2.33,5.07,5.07,0,0,0,.35,1.92Z"/><path class="cls-3" d="M501.22,529.08a4.31,4.31,0,0,0,3.17,1.32c2.3-.22,4.6-.44,6.91-.55,2.13-.11,4.29-.08,6.43,0a120.56,120.56,0,0,1,12.37,1c2.84.4,5.68.82,8.54,1,2.24.13,4.46.11,6.7.08a109.72,109.72,0,0,1-.26,13.44c-.2,4.58-.47,9.17-.62,13.75a121,121,0,0,0,.24,13.76c.18,2.25.43,4.49.64,6.73s.3,4.35.42,6.53c0,.35.06.72.1,1.08a4.87,4.87,0,0,0,1.34,3.24,4.59,4.59,0,0,0,6.5,0,4.36,4.36,0,0,0,1.34-3.24c-.21-1.64-.45-3.27-.68-4.9v0a118.74,118.74,0,0,1-1.21-13.35c-.1-4.63,0-9.26.21-13.9s.37-9.38.6-14.07c.11-2.19.29-4.39.18-6.59-.09-1.77-.26-3.51-.52-5.26a6.71,6.71,0,0,0-.44-1.59,5.85,5.85,0,0,0-1.33-2.27,9.29,9.29,0,0,0-2-1.37,10.24,10.24,0,0,0-3.62-.83c-3.36-.35-6.74-.6-10.11-.95s-7-.77-10.46-1a129.19,129.19,0,0,0-21.3.35,4.77,4.77,0,0,0-3.17,1.32,4.47,4.47,0,0,0,0,6.34Z"/><path class="cls-3" d="M493.2,691.34c1.18,1.77,3.09,2.37,5.1,2.6a40,40,0,0,0,6.86,0c4.67-.27,9.33-.54,14-.67,4.43-.12,8.87-.24,13.31-.19,2.73,0,5.54.39,8.23-.17a5.35,5.35,0,0,0,2.22-1.34,7,7,0,0,0,1.36-2.13,12.14,12.14,0,0,0,1-4.07q.18-2.13.27-4.26c.21-4.74.21-9.51.21-14.27,0-2.1,0-4.2,0-6.3,0-3.27.23-6.51.5-9.77.29-3.41.5-6.83.93-10.24.62-4.19,1.61-8.34,1.75-12.57a8.8,8.8,0,0,0-.47-3.62,5.07,5.07,0,0,0-1.2-2,9.09,9.09,0,0,0-1.42-1,8.2,8.2,0,0,0-2.77-.87,64.27,64.27,0,0,0-7.63-.48c-2.42-.06-4.85-.1-7.28-.08s-4.57.2-6.86.4-4.8.43-7.21.52c-1.14,0-2.29.05-3.42.14s-2.45.27-3.67.42c-1.91.23-3.85.2-5.76.44a5.49,5.49,0,0,0-4.23,2,4.44,4.44,0,0,0-3.1,4.24c.19,5.11.26,10.18-.06,15.28-.3,4.69-.67,9.37-.83,14.08s-.17,9.6-.26,14.41c-.08,4.37-.24,8.73-.26,13.1,0,1,0,2.06-.1,3.1q0,.2,0,.41a5.28,5.28,0,0,0,.85,2.94ZM533.64,685c-1.59-.15-3.18-.24-4.79-.27-3.36-.07-6.72,0-10.09.12s-6.64.23-10,.41c-2.86.15-5.76.47-8.64.47.29-1.67.63-3.34.88-5,.37-2.47.74-4.94.93-7.43.36-4.83.26-9.67.33-14.5s.25-9.4.48-14.1c.2-3.93.26-7.85.19-11.78l.23,0c1.09-.12,2.18-.27,3.27-.43l3.5-.55c2.07-.23,4.15-.33,6.21-.58,2.34-.27,4.68-.62,7-1,3.3-.42,6.61-.52,9.93-.74,1.61-.1,3.2-.26,4.8-.43,1-.1,2-.22,3-.29,0,.4-.07.81-.11,1.21-.11,1.32-.28,2.63-.45,3.94-.55,4-1.06,8-1.28,12.1-.24,4.34-.72,8.67-.84,13-.09,3.18-.08,6.36-.07,9.54,0,5.5,0,11-.47,16.45l-.06.3c-1.32-.11-2.63-.32-3.94-.45Z"/><path class="cls-3" d="M492,720.69c.27,7.8.34,15.61.57,23.41.1,3.67.19,7.35.23,11,0,1.77,0,3.54.05,5.31,0,.19,0,.39,0,.59a18,18,0,0,0,.08,2,19.12,19.12,0,0,0,.34,2.18,7,7,0,0,0,1,2.13,4,4,0,0,0,4.47,1.82,3.91,3.91,0,0,0,1.75-1,4.32,4.32,0,0,0,1.16-2.8,33.31,33.31,0,0,0,.05-5.07c0-1.73,0-3.46,0-5.18,0-3.67,0-7.35,0-11-.11-7.8-.37-15.61-.64-23.41a4.52,4.52,0,0,0-9-.14s0,.09,0,.14Z"/><path class="cls-3" d="M495.51,720.07a3.66,3.66,0,0,0,2.28,1.75c3.59.5,7.17,1,10.8,1.21,3.42.15,6.85.24,10.28.14,3.14-.08,6.27-.13,9.42-.12,1.41,0,2.82,0,4.24-.09s2.72-.32,4.08-.37c0,1.47-.12,3-.17,4.42-.08,1.87-.14,3.73-.15,5.6,0,3.73.12,7.45.34,11.18.2,3.45.37,6.9.54,10.35s.44,6.91.61,10.37c.12,2.37-.1,5,1.22,7a3.27,3.27,0,0,0,3.63,1.48,3.2,3.2,0,0,0,1.42-.83,3,3,0,0,0,.94-2.27c-.1-.83-.08-1.67-.17-2.5s-.21-1.7-.28-2.56c-.14-1.67-.15-3.35-.18-5s0-3.56,0-5.34,0-3.36,0-5c0-3.66-.23-7.32-.4-11s-.19-7.24-.33-10.86c-.07-1.8-.15-3.6-.39-5.38a8.1,8.1,0,0,0-1.14-3.54,5.25,5.25,0,0,0-2.86-2.1,15,15,0,0,0-3.9-.45c-1.64,0-3.3,0-4.94-.12s-3.47-.34-5.21-.44c-3.62-.22-7.26.08-10.88.05a94.14,94.14,0,0,1-10.81-.65l-3.64-.51-1-.14a3.79,3.79,0,0,0-1.92.52,3.83,3.83,0,0,0-1.75,2.28,3.76,3.76,0,0,0-.13,1,3.84,3.84,0,0,0,.52,1.92Zm7.72-5.11h0Zm34.06,7.63.17.13-.17-.13Z"/><path class="cls-3" d="M76.36,842.52c4.61.81,9.22,1.49,13.87,2.07,4.24.52,8.54.72,12.81.89s8.4.3,12.6.35c4.51,0,9,0,13.54-.16s9.11-.19,13.67-.3,9.11-.37,13.67-.62c9.39-.49,18.81-.66,28.21-.86,4.2-.1,8.4-.26,12.6-.41,4.51-.16,9-.18,13.53-.41,9.1-.45,18.19-1,27.27-1.81s18-1.6,27-2.37q6.61-.56,13.24-1c4.63-.32,9.28-.5,13.91-.72,4.31-.2,8.62-.37,12.94-.5s8.85-.22,13.27-.49c9.23-.57,18.47-1.1,27.68-1.86,9-.75,18-1.49,27.07-2,8.88-.5,17.78-.63,26.65-1,9.21-.43,18.41-.8,27.6-1.49s18.09-1.26,27.15-1.73c18.46-1,36.92-1.94,55.4-2.49,4.44-.14,8.88-.2,13.32-.35,4.65-.15,9.3-.36,13.94-.54q13.59-.5,27.16-1.13,13.93-.66,27.87-.92c9-.16,18-.34,27-.79,4.8-.24,9.6-.48,14.4-.66,4.39-.18,8.79-.23,13.18-.36q14.17-.44,28.36-.77,13.51-.31,27-.65c4.79-.12,9.58-.23,14.37-.45s9.57-.5,14.36-.73c9.51-.46,19-.59,28.53-.84,9.13-.24,18.27-.41,27.42-.46s18.46-.09,27.69-.23,18.27-.28,27.4-.32c18.58-.06,37.17,0,55.75,0,8.82,0,17.64,0,26.47,0q6.87,0,13.72.15a109.77,109.77,0,0,0,13.43-.12,4.74,4.74,0,0,0,3.11-1.29,4.41,4.41,0,0,0-3.11-7.52c-9.05.19-18.09.4-27.14.49s-18.09.18-27.14.21c-18.66.06-37.32,0-56,.15-9.11.06-18.23.28-27.34.47-9.44.19-18.87.27-28.31.35-9.17.08-18.33.3-27.49.55-9.44.25-18.89.39-28.32.83-4.65.22-9.3.47-13.94.68s-9.3.28-13.95.38q-14.08.31-28.16.54c-18.49.28-37,.56-55.44,1.26-9,.34-17.93.37-26.89.46-9.43.1-18.85.37-28.27.72-8.7.34-17.4.64-26.1,1q-7.36.3-14.72.55c-4.59.15-9.18.21-13.76.34-9.1.26-18.2.67-27.31,1.06s-17.92.79-26.88,1.25c-9.46.48-18.9,1-28.34,1.71-9.13.67-18.27,1-27.42,1.5-9,.46-17.91.66-26.85,1.22s-18,1.38-27,2.16c-9.19.8-18.42,1.33-27.63,1.93-4.4.29-8.81.35-13.21.5s-8.63.34-13,.55-8.79.4-13.17.7c-4.71.32-9.41.7-14.11,1.1q-13.45,1.12-26.89,2.3c-4.44.39-8.88.73-13.34,1s-8.67.57-13,.73c-4.6.16-9.19.26-13.78.43s-9,.32-13.51.43c-8.35.2-16.71.46-25,.87-4.26.21-8.51.55-12.76.73-4,.17-8,.24-12,.39-4.31.15-8.61.37-12.92.51-3.84.13-7.67.19-11.51.25-4.05.08-8.11.13-12.16.06s-7.81-.35-11.71-.74c-2.31-.32-4.6-.7-6.9-1.11a3.52,3.52,0,0,0-2.55.34,3.31,3.31,0,0,0-1.52,2,3.08,3.08,0,0,0-.11.81,3.25,3.25,0,0,0,2.42,3.26Z"/><path class="cls-3" d="M82.51,538.87c5.81,3,11.64,6.07,17.7,8.59,5,2.11,10.19,3.94,15.25,6,3.62,1.63,7.26,3.26,10.78,5.1q5.61,2.94,11.2,5.9c7.54,4,15,8.24,22.43,12.42,3,1.7,6.07,3.39,9.08,5.12s5.8,3.4,8.71,5.07,5.68,3.34,8.5,5c1.37.83,2.75,1.62,4.12,2.46s2.84,1.85,4.31,2.68a3.64,3.64,0,1,0,3.67-6.28c-3.25-2-6.46-4.1-9.73-6.1s-6.81-4.09-10.28-6.06q-10.75-6.12-21.47-12.29c-3.83-2.2-7.67-4.38-11.53-6.52-3.6-2-7.24-3.93-10.84-5.92s-7.15-3.91-10.8-5.72c-2-1-4-2-6.07-2.88s-4.18-1.75-6.28-2.61l-4.5-1.87c-3-1.27-5.9-2.55-8.81-3.94-3.75-1.79-7.43-3.7-11.1-5.63A4.38,4.38,0,0,0,81,533a4.29,4.29,0,0,0-.57,2.16,4.18,4.18,0,0,0,2.11,3.74Z"/><path class="cls-3" d="M138.06,490.81a6.27,6.27,0,0,0,3.16,3.91,30.57,30.57,0,0,0,3.21,1.33c1.26.51,2.51,1,3.76,1.55,3.7,1.6,7.34,3.35,10.92,5.21s7.32,3.69,10.91,5.65,7.34,4.24,11,6.4c3.79,2.26,7.57,4.53,11.31,6.87,7.55,4.72,15,9.66,22.58,14.25s15.81,8.84,23.7,13.29c4.22,2.38,8.38,4.85,12.56,7.28,4.57,2.66,9.23,5.1,14,7.39a3.7,3.7,0,0,0,2.71.35,3.52,3.52,0,0,0,.84-6.43c-4.54-2.19-9-4.51-13.38-7-3.84-2.19-7.61-4.49-11.4-6.77-7.77-4.68-15.77-9-23.48-13.76-7.53-4.67-14.83-9.68-22.4-14.28s-15.06-8.79-22.36-13.58c-4.59-3-9.26-6-14-8.74-2.57-1.5-5.17-3-7.83-4.32-2.34-1.2-4.77-2.19-7.2-3.2a7.72,7.72,0,0,0-4.31-1l-1.18.15a4.49,4.49,0,0,0-2,1.14,4.67,4.67,0,0,0-1.33,3.18,3.49,3.49,0,0,0,.19,1.15Z"/><path class="cls-3" d="M495.38,769.68c.09,1.26.3,2.51.32,3.77,0,.66,0,1.33,0,2,0,.83-.07,1.66,0,2.49a2.45,2.45,0,0,0,2.42,2.42,2.42,2.42,0,0,0,2.41-2.42,18.8,18.8,0,0,0-.26-2.4c-.1-.58-.25-1.14-.36-1.72a20.4,20.4,0,0,1,0-2.67c0-1.18.1-2.36.13-3.54s0-2.23,0-3.35c0-.58,0-1.16,0-1.74a16.43,16.43,0,0,0-.3-2.64,2.17,2.17,0,0,0-2.1-1.61,2.2,2.2,0,0,0-2.19,2.19c.09,1.59,0,3.2,0,4.8q0,.78,0,1.56,0,1.43.1,2.86Z"/><path class="cls-3" d="M493.8,765.43c0,1.42.06,2.84.06,4.27s-.07,2.93-.05,4.39c0,.74,0,1.49,0,2.23,0,.34,0,.66,0,1a6.39,6.39,0,0,0,.33,1.67,1.84,1.84,0,0,0,3.08.81,1.94,1.94,0,0,0,.54-1.3,8,8,0,0,0,.07-1.18c0-.34-.05-.66-.08-1-.08-.74-.15-1.49-.24-2.23-.18-1.46-.34-2.92-.45-4.39s-.16-2.84-.24-4.27-.12-3-.12-4.51a1.45,1.45,0,0,0-2.91,0c0,1.51,0,3,0,4.51Z"/><path class="cls-3" d="M492,777.92a8.26,8.26,0,0,0,.17,1.64,4.7,4.7,0,0,0,1.1,2,2.38,2.38,0,0,0,2.34.62,2.44,2.44,0,0,0,1.77-2.33c0-.19,0-.37,0-.56a4.87,4.87,0,0,0,0-.62,11.77,11.77,0,0,0-.19-1.49c-.08-.48-.16-1-.24-1.45-.33-2.72-.41-5.46-.64-8.2q-.19-2.2-.37-4.42c-.13-1.59-.32-3.17-.32-4.76a1.11,1.11,0,0,0-2.22,0c0,1.12-.09,2.22-.19,3.33s-.2,2.16-.34,3.24l.06-.43c-.35,2.58-.55,5.18-.66,7.77-.06,1.27-.16,2.53-.26,3.8,0,.51-.05,1-.05,1.53q0,.14,0,.29Zm5-2c0,.1,0,.2,0,.3l0-.3Z"/><path class="cls-3" d="M499.53,777a1.08,1.08,0,0,0,.3.72,1,1,0,0,0,1.74-.72c-.08-1.11-.14-2.22-.19-3.33s-.14-2-.28-2.94-.28-1.81-.44-2.71-.3-1.88-.44-2.82c-.1-1.12-.08-2.25-.09-3.37,0-1.4,0-2.79,0-4.19a.54.54,0,1,0-1.07,0c0,1.68,0,3.36,0,5,0,.38,0,.75,0,1.13s0,.79,0,1.17,0,.81-.06,1.21,0,.77,0,1.15q0,.19,0,.38c0,3.11.3,6.21.5,9.3Z"/><path class="cls-3" d="M497.17,758.08c.21,3.5.27,7,.31,10.51,0,1.59.07,3.18.17,4.77a34.75,34.75,0,0,0,.57,5.24,2.17,2.17,0,0,0,4.25-.57c0-1.56-.15-3.11-.14-4.67s0-3.18,0-4.77-.17-3.36-.3-5-.24-3.64-.35-5.47a2.24,2.24,0,0,0-4.48-.11s0,.07,0,.11Z"/><path class="cls-3" d="M539.06,778.65a1.63,1.63,0,0,0,1.61-1.61v-.22a1.57,1.57,0,0,0,.7-.24,2.1,2.1,0,0,0,.92.23,1.94,1.94,0,0,0,1.71-1h0a2.21,2.21,0,0,0,1-1.29,6.69,6.69,0,0,0,.14-2c0-.38,0-.76-.06-1.14,0-.57-.11-1.13-.21-1.69s-.22-.83-.32-1.24a1.48,1.48,0,0,0-2.86,0c-.13.35-.27.68-.37,1l0,.13a1.79,1.79,0,0,0-.38,0q-.12-.92-.23-1.83c-.06-.48-.13-1-.2-1.44l-.1-.73a5.06,5.06,0,0,0-.43-1.47,1,1,0,0,0-.9-.52,1.06,1.06,0,0,0-.9.52,2.38,2.38,0,0,0-.28,1.18c0,.23,0,.48,0,.72,0,.46,0,.93,0,1.39,0,1.06,0,2.11,0,3.17-.06,2.15-.22,4.3-.34,6.45,0,0,0,0,0,.07a1.62,1.62,0,0,0,1.61,1.54Z"/><path class="cls-7" d="M151.53,407.63a6.73,6.73,0,0,0,3.07,4,7,7,0,0,0,5.16.67l13.58-2.68c3.54-.7,7.07-1.41,10.63-1.94,5.29-.58,10.62-.82,15.91-1.41,5.75-.64,11.49-1.27,17.26-1.65,6-.39,12-.76,18.06-1.19,3.28-.23,6.56-.44,9.81-.89s6.18-.93,9.27-1.49a7,7,0,0,0,5.16-6.77,7.1,7.1,0,0,0-7-7c-4,0-7.89-.06-11.84.2s-7.68.75-11.51,1.22c-7.55.93-15.12,1.75-22.67,2.68-3.69.45-7.38,1-11.09,1.32-4.16.39-8.33.72-12.47,1.32-3.73.55-7.39,1.42-11.07,2.23s-7.55,1.58-11.34,2.33l-4.24.85c-3,.6-4.89,3.63-4.89,6.55a6.31,6.31,0,0,0,.22,1.67Z"/><path class="cls-7" d="M163,295.57c1.26,3.6,2.52,7.18,4,10.72.35.84.7,1.68,1.06,2.51a10.53,10.53,0,0,0,18.18,0,10.82,10.82,0,0,0,1.37-7.11q5.54.72,11.09,1.4c6.09.84,12.17,1.73,18.26,2.55s12.3,1.13,18.47,1.64c2.07.3,4.14.62,6.2,1,3.87.75,7.47.61,11-1.43a14.22,14.22,0,0,0,5.1-19.45l-2.22-2.87a14.16,14.16,0,0,0-6.27-3.66,79.87,79.87,0,0,0-11.93-3.77,107.71,107.71,0,0,0-15.62-1.93q-11.19-.85-22.4-.93c-3.64,0-7.34.28-11,.59-2.84.23-5.65.57-8.46,1a35.44,35.44,0,0,0-5.9,1.22,41.55,41.55,0,0,0-6,2.44,13.73,13.73,0,0,0-4.56,4.34,10.26,10.26,0,0,0-1.74,5.72q0,.29,0,.58c0,2,.79,3.62,1.42,5.44Z"/><path class="cls-7" d="M177.66,415.27a224.17,224.17,0,0,0,27.93,3.93c8.24.58,16.54.52,24.8.68s16.58-.35,24.88-.41c8.15-.05,16.28,0,24.42-.4s16.44-.75,24.64-1.56,16.7-1.28,25.06-1.88,16.46-1,24.71-1.28l2.3-.06a9.57,9.57,0,0,0,3.9,1c9,.44,18,.46,27,.14,8.41-.3,16.82-.79,25.22-1.28l1.76,0c7.36.06,14.72.13,22.08-.06a174,174,0,0,0,22.12-1.93c6.47-1,12.92-2.09,19.41-3l-2.17.29c.93-.13,1.87-.26,2.81-.38l5.36-.25c4,.26,7.84-3,8.88-6.76a9.37,9.37,0,0,0-.07-5.06,11.25,11.25,0,0,0,.76-7.74,10.51,10.51,0,0,0-2.71-4.64,10.36,10.36,0,0,0-7-3.12c-6.51-1.5-13.27-1.62-19.92-1.62-3.8,0-7.57.41-11.35.73l-12.33,1.1c-8.19.74-16.35,1.66-24.53,2.53s-16.44,1.1-24.66,1.61c-10.11.64-20.16,1.85-30.19,3.23-7.25.94-14.52,1.75-21.71,3.12s-14.66,2.82-22,3.92S302,398,294.52,398.44c-8.18.48-16.35.31-24.54.27s-16.53.56-24.79.93-16.49.41-24.73.63-16.73.43-25.07-.47c-4.3-.65-8.58-1.44-12.85-2.29a9.7,9.7,0,0,0-7.09.93,9.26,9.26,0,0,0-4.23,5.5,8.65,8.65,0,0,0-.3,2.3c0,4,2.6,8.21,6.73,9Zm304.87-33.7.26,0-.26,0Z"/><path class="cls-7" d="M498.05,282.83c-.88-3.2-2.84-5.15-5.41-7-2.88-2.11-6.7-1.9-10.09-2-1.5,0-3,0-4.48-.14-3.06-.21-6.13-.19-9.2-.09-2.88.08-5.76.33-8.64.39a62.09,62.09,0,0,1-8.17-.43c-4.09-.61-8.17-1.3-12.28-1.81A114.06,114.06,0,0,0,428,271c-7.93-.17-15.85-.48-23.77-.89S388.1,269,380,268.79c-8.41-.2-16.86.06-25.26.55s-16.93,1.43-25.39,2.23-17.15,1.54-25.71,2.43c-8.33.88-16.72,1.64-25.1,2-8.58.4-17.18.35-25.77.53-7.63.16-15.23.27-22.86,0-7.36-.27-14.67-1.07-22-1.81-7.74-.78-15.46-1.64-23.21-2.23-6.45-.49-12.9-.48-19.35-.41a6.88,6.88,0,0,0-5.87.26A11,11,0,0,0,150.62,283a10.79,10.79,0,0,0,1.84,6q-.26,1.42-.51,2.84c-.64,3.62-1.35,7.23-2.15,10.82-.92,4.08-1.43,8.21-2,12.36.12-.93.24-1.86.37-2.78q-2.44,17.82-3.47,35.79c-.2,3.54-.29,7.09-.29,10.63q0,3.25.09,6.51c.08,2.92.16,5.83.34,8.75a49,49,0,0,0,1,7.34,31.47,31.47,0,0,0,3.82,8.61,10.46,10.46,0,0,0,2.26,2.74c0,1.16-.09,2.32-.19,3.48-.23,1.43-.5,2.84-.76,4.26q-.09.47-.15.94a6.69,6.69,0,0,0-1.67,2.92,6.61,6.61,0,0,0-.24,1.76,6.88,6.88,0,0,0,5,6.71,114,114,0,0,0,15.77,2.93q3.82.39,7.63.72c4,.35,8.12.46,12.18.54,4.4.08,8.84.29,13.25.06,4.58-.24,9.13-.69,13.69-1.13,8.47-.83,17-1.15,25.49-1.62,9.5-.53,19-1,28.51-1.46,14.56-.71,29.11-1.84,43.67-2.77,6.72-.43,13.43-.84,20.14-1.45,3.93-.35,7.81-.8,11.73-1.32,2.75-.37,5.48-.81,8.21-1.25a24.41,24.41,0,0,0,2,1.5c4.84,3.17,11.06,2.89,16.65,2.94,3,0,5.89,0,8.84-.09,5.32-.1,10.65-.27,16-.61a154.75,154.75,0,0,0,16.37-1.83c7.28-1.26,14.28-5,18.33-11.35a19.64,19.64,0,0,0,2.88-7.66,39.8,39.8,0,0,0,5.06-2.28l4.69-3.62.34-.36a10.4,10.4,0,0,0,4.82,1.17,11,11,0,0,0,2.89-.39,11.26,11.26,0,0,0,9.06,4.55,11.58,11.58,0,0,0,7.69-3,18.17,18.17,0,0,0,1,6.15,10.67,10.67,0,0,0,17.82,4.71l1.66-2.16a10.59,10.59,0,0,0,1.46-5.38c.46-4,.08-8,0-12-.12-3.82-.17-7.65-.19-11.47,0-8,.41-16,.59-24,.11-4.9.19-9.79.33-14.68.76-5.06,1.37-10.16,1.77-15.25a143.52,143.52,0,0,0,.13-15.76c.17-.15.34-.3.49-.45,1.82-1.82,2.24-3.11,3.16-5.47A11.88,11.88,0,0,0,498.05,282.83Zm-167,28a15.88,15.88,0,0,0-6.17-5.51c1.34,0,2.68,0,4-.06q3-.08,6-.13c-.12.31-.22.62-.31.94a9.79,9.79,0,0,0-.35,2.6,10.6,10.6,0,0,0,.24,2.11Z"/><path class="cls-7" d="M185.33,454.22a4.5,4.5,0,0,0,6.55,2.66,12.2,12.2,0,0,0,2.69-2.35,6.13,6.13,0,0,0,1,1.24,6.81,6.81,0,0,0,6.41,1.7c2.66-.53,4.84-2.51,6.94-4.11,1.82-1.38,3.66-2.73,5.44-4.16a62.91,62.91,0,0,0,8.28-8.34c1.64-1.92,3.18-3.92,4.65-6a32.31,32.31,0,0,0,3.23-6.77,36.71,36.71,0,0,0,1.46-4.87,35.56,35.56,0,0,1,1.35-4.18c.38-.82.78-1.62,1.22-2.42a4.38,4.38,0,0,0-.68-5.25c-1.56-1.56-4.61-1.81-6.13,0a45.15,45.15,0,0,1-4.65,5.32c-.71.61-1.43,1.19-2.16,1.77.12-.59.21-1.19.29-1.8,0-.33.08-.66.13-1a13.25,13.25,0,0,0-.37-2.31c-1-4.3-6.85-5.7-9.82-2.59q-.22.24-.43.48a5.91,5.91,0,0,0-3.22-2.35,5.73,5.73,0,0,0-4.4.57,6,6,0,0,0-2.62,3.4c-1.12,3.18-2.27,6.34-3.57,9.45-1,2.33-2,4.65-2.92,7s-1.89,4.94-2.89,7.38-2,4.86-3,7.32l-1.5,3.84c-.63,1.6-1.5,3.22-1.5,4.93a4.65,4.65,0,0,0,.21,1.4Z"/><path class="cls-7" d="M668.88,558.48l2.08,2.69a13.23,13.23,0,0,0,5.86,3.42c3.81,1.6,8,1.5,12,1a94,94,0,0,0,10.26-1.6,40.91,40.91,0,0,0,9.26-3.51c1.15-.58,2.21-1.46,3.33-2.11.81-.49,1.66-.9,2.52-1.31a31,31,0,0,1,5.14-1.4,28.85,28.85,0,0,1,5.9.1c2,.23,4-1.59,4.5-3.42a4.71,4.71,0,0,0-.47-3.6,4.45,4.45,0,0,0-2.78-2.14c-2.58-.36-5.14-.72-7.74-.83l-4.43-.15c-1.4-.06-2.81-.23-4.21-.41a45,45,0,0,1-5.84-1.72,53.5,53.5,0,0,0-6.85-2c-2.11-.43-4.24-.74-6.33-1.22-1.19-.28-2.35-.68-3.53-1a25.47,25.47,0,0,0-7.21-.88,13.46,13.46,0,0,0-12.82,9.76,13.39,13.39,0,0,0,1.34,10.24Z"/><path class="cls-7" d="M841.57,308.64a13,13,0,0,0-1-4.37,13.2,13.2,0,0,0-2.95-4.93,28.27,28.27,0,0,0-3.38-2.62,17.42,17.42,0,0,0-4-1.67c-1.18-.23-2.37-.41-3.56-.53a12.17,12.17,0,0,0-2.22,0,30,30,0,0,0-11.9,3.14,33.67,33.67,0,0,0-4.55,1.29c-1,.35-1.92.74-2.85,1.17-3.59.39-6.51,2.71-8.74,5.55a35,35,0,0,0-7.07,3.73,29.37,29.37,0,0,0-5.79,5.11,35.92,35.92,0,0,0-2.46,3.3,20.49,20.49,0,0,0-1.75,3.71A25.15,25.15,0,0,0,778.6,337a22,22,0,0,0,2.93,6.52,19.45,19.45,0,0,0,2.81,3.43l-1.11.92a5.51,5.51,0,0,0-1.45.63c-2.92,1.8-5.77,3.71-8.59,5.67l-1.16.73c-2.6,1.64-5.2,3.26-7.77,4.93q-9.44,6.11-18.78,12.36c-11.24,7.49-22.13,15.46-33,23.52-1.2.89-2.55,1.58-3.78,2.41-1.86,1.24-3.78,3-4.38,5.26a5.85,5.85,0,0,0-.2,1.51l-.34.23-2.76,1.8c-1.62,1.06-3.23,2.16-4.83,3.25s-3.31,2.27-4.94,3.43a6,6,0,0,0-3.13.74c-1.36.75-2.64,1.69-3.94,2.55s-2.59,1.74-3.88,2.6c-2.11,1.42-4.2,2.87-6.3,4.29-4.76,3.21-9.52,6.41-14.55,9.16a7,7,0,0,0-3.82-.12,59.24,59.24,0,0,0-5.87,1.84l-1.91.59c-2.17.64-4.36,1.25-6.56,1.75-2.47.56-4.92,1-7.43,1.39-1.18.19-2.37.33-3.56.49a19.18,19.18,0,0,0-3.46.84l-.46.18a90.2,90.2,0,0,0-10.59-.4c-4.16.11-8.31,0-12.47-.24-8.38-.49-16.67-1.9-25-2.49-1.85-.13-3.73-.21-5.58-.21-1.6,0-3.17,0-4.76.18a41,41,0,0,0-5.54.88,26.58,26.58,0,0,0-7.18,3.24,17.22,17.22,0,0,0-6.52,7.37,24.48,24.48,0,0,0-2.2,5.87c-.37,1.88-.55,3.8-.88,5.69a71.69,71.69,0,0,0-1,7.5,40.28,40.28,0,0,0,.73,8.12c.12.81.24,1.61.37,2.4a14,14,0,0,0-.44,1.49c-.34,1.48-.74,2.94-1.1,4.42q-.74,3.11-1.44,6.24c-.94,4.18-1.7,8.41-2.64,12.59a126.75,126.75,0,0,1-3.64,12.64c-1.29,3.84-2.2,7.77-3.22,11.68a109.32,109.32,0,0,0-2.72,11.05,73.44,73.44,0,0,0-1,8.58q0,.26,0,.51a43,43,0,0,0,.68,6.41c.28,1.85,1.39,3.56,2.11,5.27.83,2,2.4,3.54,3.69,5.18a19.48,19.48,0,0,0,4.63,3.37,47.92,47.92,0,0,0,5,2.14,22.2,22.2,0,0,0,4.33,1.11c3.35.63,6.77,1,10.16,1.26a69.51,69.51,0,0,0,12.09.05c3.51-.3,7-.81,10.51-1.19,3.25-.35,6.48-.79,9.72-1.26a28.58,28.58,0,0,0,6.55-1.37l4.4-1.86a18.79,18.79,0,0,0,3.41-2.56c1.34-.21,2.66-.44,4-.66a131.9,131.9,0,0,1,25.86-.24,118.43,118.43,0,0,0,13.93.85,154.38,154.38,0,0,0,17.4-1.76c4.77-.61,9.56-1.19,14.29-2.06,4.27-.78,8.5-1.67,12.76-2.46a37.28,37.28,0,0,0,4.17,3.2,14,14,0,0,0,1.83,1.07c4.78,2.44,9.83,3.17,15.15,3.45a52.43,52.43,0,0,0,7.45-.49c6.1-.59,12.15-1.64,18.2-2.64a127.51,127.51,0,0,1,14.53-.4c5.59.1,11.13.92,16.73.62,7.32-.39,14.48-2.14,21.54-4,2.31-.61,4.67-1.11,7-1.81A35.48,35.48,0,0,0,805,555a17.49,17.49,0,0,0,15.84-8.43,17.25,17.25,0,0,0,2.32-8.62,16.09,16.09,0,0,0-.54-4.2c1-3.57.87-7.61.73-11.33-.12-2.93-.2-5.86-.26-8.79-.12-5.24,0-10.49-.17-15.73-.15-5.5-.32-10.95,0-16.45.24-4.78.42-9.59.87-14.36.47-2.83,1-5.65,1.29-8.51.39-3.42-.41-7.75-3.23-10-.38-.3-.78-.59-1.19-.87a22.6,22.6,0,0,0-4.25-6.2,35.72,35.72,0,0,0-5.75-4.73c-3.84-2.79-8.12-3.09-12.63-3.57a21.21,21.21,0,0,0-3.2.06c-2,.09-4,.33-6,.57a119.52,119.52,0,0,0-15.33,2.72c-2.24.58-4.48,1.12-6.74,1.55-10,1-19.94,1.73-29.84,3.36-4.53.75-9,1.87-13.46,3s-9,2.55-13.61,3.46a53.64,53.64,0,0,1-7.82-.09c-.4-.13-.8-.24-1.18-.33a18.46,18.46,0,0,0-11.63.86,15,15,0,0,0-1.54-.54,5.17,5.17,0,0,0,0-.6c0-.11,0-.22,0-.32l.46-.9q.69-1.35,1.38-2.7c.2-.39.39-.78.56-1.18l1-1c1.11-1,2.17-2,3.28-2.95l1.93-1.62,1.17-.87c1.11-.83,2.19-1.7,3.28-2.56,1.85-1.45,3.67-2.94,5.49-4.43l2.57-2.11,5.81-4.41,4.27-3.22c.93-.7,1.84-1.41,2.81-2a10.74,10.74,0,0,0,2.42-2,5.72,5.72,0,0,0,1.5-2.57q0-.26.08-.51l1.31-1.06q8.11-6.57,16.19-13.2c2.31-1.9,4.6-3.85,6.89-5.79,1.2-1,2.38-2,3.56-3.06l2-1.67a32.13,32.13,0,0,0,2.82-2.67c.3-.18.6-.38.9-.6,1.13-.79,2.29-1.53,3.45-2.29,2.61-1.71,5.12-3.58,7.68-5.37,3-2.14,6.07-4.31,9.15-6.4l.82-.56c1.88-1.08,3.72-2.23,5.57-3.36,4.73-2.87,9.33-5.93,13.87-9.09a7.35,7.35,0,0,0,2.38-2.51,29.4,29.4,0,0,0,10.7-2.07c.59-.08,1.18-.18,1.71-.27a27.16,27.16,0,0,0,8.08-3,34,34,0,0,0,5.65-4.2,28.61,28.61,0,0,0,4.56-5.25,33.57,33.57,0,0,0,3.7-7c.41-1,.76-2,1.07-3a29,29,0,0,0,.81-5.09l.15-.48a38.15,38.15,0,0,0,1-4.58v0a26,26,0,0,0,1.51-6A20.06,20.06,0,0,0,841.57,308.64ZM557,546.2v0l.34.81A7,7,0,0,1,557,546.2Zm.16-5.3,0-.29q0-.28,0-.56l.39.83Zm242.38-60.48c.4-.13.79-.25,1.19-.37q-.44,2-.87,4.09l-2.06-2.67-.48-.45A21.17,21.17,0,0,0,799.56,480.42Z"/><path class="cls-7" d="M164.16,739.33c.28,1.45.61,2.89.86,4.35a20.37,20.37,0,0,1,0,3.55,42.71,42.71,0,0,0-.24,4.54,25.17,25.17,0,0,0,1.15,6.62c.39,1.25.79,2.46,1.06,3.72,0,.65,0,1.31,0,2a14.11,14.11,0,0,0,1.48,6.41,7.66,7.66,0,0,0-.87,2.09,9.17,9.17,0,0,0,.9,6.85,8.91,8.91,0,0,0,7.68,4.41,36.39,36.39,0,0,0,6.52-1.1c1.61-.35,3.21-.7,4.82-1,3.59-.72,7.19-1.37,10.8-2,6.7-1.14,13.36-2.57,20-4,13.74-2.86,27.52-5.61,41.34-8.1,6.87-1.24,13.77-2.28,20.65-3.44,3.62-.61,7.24-1.24,10.85-1.91a79.45,79.45,0,0,0,11.51-2.57,10,10,0,0,0,5.65-4.34,9.46,9.46,0,0,0-10.68-13.9c-6.9,2-13.81,3.84-20.82,5.36s-14.11,2.93-21.18,4.31q-20.36,4-40.82,7.5c-6.8,1.17-13.57,2.49-20.36,3.64-3.59.61-7.17,1.22-10.73,1.94l-1.43.28c0-.66.1-1.32.12-2a25,25,0,0,0-.68-5.52c-.25-1.17-.62-2.32-.93-3.48a33.25,33.25,0,0,1-.77-3.89v.08a17.58,17.58,0,0,0-2.58-7.86,18.06,18.06,0,0,0-3.4-3.78c-.93-.77-1.9-1.49-2.76-2.34l-.23-.39c-.08-.25-.15-.5-.2-.76,0-.47,0-.94,0-1.41a3.61,3.61,0,0,0-7.21,0q0,.35,0,.69a28.6,28.6,0,0,0,.44,5.4Z"/><path class="cls-7" d="M160.8,674.49l3.42,2.13a44.35,44.35,0,0,0,7.55,3.46,64.69,64.69,0,0,0,8.73,2.39c4.1.93,8.26,1.62,12.38,2.45a271.29,271.29,0,0,0,28.06,4.31c4.66.43,9.27.66,13.95.64,4.33,0,8.64-.44,13-.83a220.61,220.61,0,0,0,28.08-4.25c2.09-.46,4.18-.93,6.26-1.46,7-1.75,11.12-9.45,9.24-16.27a13.34,13.34,0,0,0-6.08-7.9l-3.17-1.33a13.26,13.26,0,0,0-7,0c-12,2-23.94,3.93-35.94,5.76-4.07.52-8.14,1-12.25,1.18-5.34.3-10.7.31-16.06.31a247.69,247.69,0,0,1-28.6-1.91,46.44,46.44,0,0,1-7.06-1.72c-1.75-.89-3.42-1.91-5.09-3-4.27-2.69-10.19-.92-12.67,3.33a9,9,0,0,0-1.25,4.56,9.69,9.69,0,0,0,4.57,8.11Z"/><path class="cls-7" d="M265.31,652.14l.65-.09,2-.27Z"/><path class="cls-7" d="M380,750.12c-.11-.88-.19-1.77-.27-2.66a51.68,51.68,0,0,1-.07-8.24,80.26,80.26,0,0,0,.1-11.27c-.27-4-.93-8-1.31-12s-.6-8.05-.89-12.08c-.61-8.54-.9-17.11-1.16-25.68-.18-5.7,0-11.39-.35-17.09a78.2,78.2,0,0,0-1.32-10.81c-.53-2.51-2.15-5.38-4.5-6.59a6.76,6.76,0,0,0-6.58,0,9.08,9.08,0,0,0-1.33,1c-.25-.08-.49-.18-.75-.24a17.76,17.76,0,0,0-8,.19c-1.65.32-3.26.75-4.9,1.08-2.76.25-5.54.27-8.3.45-3.88.25-7.76,1-11.61,1.61a58.17,58.17,0,0,1-8.18.2c-.19,0-.37,0-.55,0-3.86-.54-7.84-.12-11.73.13-4.76.3-9.54.56-14.3.87-9.39.62-18.69,1.79-28,3l-.74.1-3.88.5q-17.06,1.08-34.12,2.29-7.5.52-15,1.18c-5.81.52-11.59,1.33-17.37,2.09l-2.52.34a9.53,9.53,0,0,0-2.79,1.31L188,660c-2,.15-4.07.15-6.11.11a37.93,37.93,0,0,0-6.53.68,31.52,31.52,0,0,0-5.55,1,17,17,0,0,0-3.89,1.62,9,9,0,0,0-2.9,3.05l-1.23,1.6.54-.7a10.94,10.94,0,0,0-1.79,3.24,9.66,9.66,0,0,0-.33,3.06q0,.44,0,.88c0,.8,0,1.6,0,2.4,0,3.53.4,7.1.77,10.61a44.32,44.32,0,0,0,1.51,7.84,45.27,45.27,0,0,0,2.67,7.13c-1.06,6.26-.88,12.74-1,19.08-.05,2.08-.13,4.15-.22,6.23-.05,1.06-.1,2.13-.16,3.19q0,.45,0,.91a12.51,12.51,0,0,0,1.82,6.74,6.56,6.56,0,0,0,3.43,2.73,7.89,7.89,0,0,0,.22.85,153.2,153.2,0,0,0,6.2,14.81l5.21,11.73c1,2.16,3.56,3.82,5.74,4.42a9.61,9.61,0,0,0,9.93-3.11l1.24.55a4.84,4.84,0,0,0-.06.7c0,3.93,3.82,5.7,7,6.68a33.85,33.85,0,0,0,6.57,1.14c4.09.4,8.08-.31,12.09-1.08l.3-.06c.79,0,1.58.08,2.38.09a61,61,0,0,0,8.6-.66c3.45-.43,6.88-1,10.3-1.56,5.22-.91,10.46-1.83,15.64-2.93,3.87-.35,7.72-.83,11.58-1.4,6.26-.92,12.51-1.95,18.76-2.93a119.84,119.84,0,0,0,13.28-2q5.48-.85,10.94-1.82a16.7,16.7,0,0,0,11.45,3.57c1.06-.06,2.12-.16,3.18-.26,2.87-.27,5.74-.71,8.58-1.24,1.58-.29,3.14-.65,4.71-.94,2.78-.31,5.56-.58,8.34-1,2.58-.42,5-1.31,7.57-1.85,3.92-.27,7.83,0,11.73-.65C375.94,761.48,380.64,755.7,380,750.12Z"/><path class="cls-9" d="M537.53,562.55c7.52.32,15.05.57,22.57.7,6.85.11,13.69.14,20.54.34,7.39.21,14.77.41,22.16.23,7.1-.16,14.19-.32,21.29-.41,14.88-.18,29.75-.61,44.63-.89,7.1-.13,14.19-.34,21.28-.75,7.49-.44,15-1,22.46-1.57,15-1.15,30-2.24,45-3.89,7.12-.79,14.27-1.46,21.4-2.09s14.06-1.34,21.11-1.49c4-.09,8-.08,12.05,0,2.1,0,4.2.07,6.3.13l2.87.06a39.8,39.8,0,0,0,5.8-.61,7.75,7.75,0,0,0,3.46-2,7.83,7.83,0,0,0,0-11.06,8.16,8.16,0,0,0-5.53-2.29,80.79,80.79,0,0,0-11.09.48c-3.42.23-6.85.4-10.27.64-7.11.5-14.21,1.1-21.32,1.66-14.4,1.12-28.76,2.69-43.1,4.45C724,546,708.9,547.43,693.69,548c-14.88.59-29.77,0-44.66,0-7.28,0-14.55.24-21.81.46s-14.25.45-21.37.82c-3.69.19-7.39.44-11.09.59-3.49.14-7,.16-10.49.24q-10.26.23-20.52.37c-8.75.1-17.48-.08-26.22-.45a6.23,6.23,0,0,0,0,12.45Z"/><path class="cls-9" d="M681.24,446.53a7.46,7.46,0,0,0,4.4,3.38,7.12,7.12,0,0,0,5.67-.75,78.21,78.21,0,0,1,7.39-4.78,63,63,0,0,0,7.21-4.36,165,165,0,0,0,13.9-12.08c8.42-7.84,17.43-15.1,26.48-22.2,8.78-6.63,17.78-13,26.23-20,4-3.29,7.78-6.74,11.69-10.09a132.9,132.9,0,0,0,12.21-11.43,6.42,6.42,0,1,0-9.09-9.08c-2.08,1.93-4.22,3.75-6.45,5.51-5.76,4.39-11.68,8.59-17.7,12.59-6.59,4.38-13.29,8.61-19.73,13.22-6.74,4.83-13.21,10-19.68,15.19-3.06,2.46-6.1,5-9.13,7.44s-6.27,5.06-9.27,7.77c-3.26,3-6.1,6.32-9.27,9.37s-6.41,5.77-9.81,8.45l-2.42,1.77a7.91,7.91,0,0,0-3.38,4.4,7.31,7.31,0,0,0-.26,1.94,7.43,7.43,0,0,0,1,3.73Z"/><path class="cls-9" d="M778.78,342c5.21,5.1,10.44,10.75,17.26,13.67a26,26,0,0,0,6.11,1.92c1.51.24,3,.46,4.55.58a26.67,26.67,0,0,0,5.9-.48,35,35,0,0,0,11.24-3.62,46.37,46.37,0,0,0,9.75-6.32c3-2.43,5.31-5.9,7.28-9.2a45.22,45.22,0,0,0,2.14-4.11,42.16,42.16,0,0,0,2.28-6c.35-1.24.59-2.51.86-3.77a75.54,75.54,0,0,0,1.48-13.4,8.7,8.7,0,0,0-13.1-7.52c-1.74,1-3.71,3.1-4,5.2-.46,3.29-1,6.57-1.48,9.86-.3,2.08-.68,4.14-1.16,6.19a25.07,25.07,0,0,1-1.16,3.51,48,48,0,0,1-4.13,7.39,38.93,38.93,0,0,1-4.15,4.14,36.64,36.64,0,0,1-4.43,2.68,31.38,31.38,0,0,1-4.77,1.34,26.73,26.73,0,0,1-4.54,0,30.34,30.34,0,0,1-4.74-1.25,33.24,33.24,0,0,1-4.44-2.65c-2.7-2.25-5.18-4.75-7.69-7.21a6.38,6.38,0,0,0-10.9,4.55,6.26,6.26,0,0,0,1.85,4.5Z"/><path class="cls-9" d="M147.13,412.66c4.34,1,8.69,1.92,13.05,2.8s8.53,1.9,12.8,2.86c4.64,1.05,9.3,1.9,14,2.48a49.57,49.57,0,0,0,5.05.31c-.57,1.21-1.13,2.43-1.71,3.64-1.8,3.79-3.7,7.54-5.6,11.27a158.37,158.37,0,0,1-11.82,19.49c-1.69,2.07-3.44,4.09-5.07,6.2-1.87,2.4-3.7,4.82-5.55,7.23-1,1.28-2.11,2.51-3.2,3.74-.77.87-1.57,1.91-2.21,2.81a10.43,10.43,0,0,0-2,3.82,11.68,11.68,0,0,0-.12,5.7,9.93,9.93,0,0,0,2.78,4.54C161,492.83,166,493,170,490.84a31.05,31.05,0,0,0,6.26-4.82c1.91-1.77,3.7-3.67,5.52-5.53,3-3,5.86-6.19,8.79-9.28s6.27-6.19,9.58-9.12c3.07-2.71,6-5.52,9-8.35s5.87-5.54,8.66-8.48c2.56-2.72,5-5.59,7.3-8.5a35.86,35.86,0,0,0,4.16-6.1c.86-1.66,1.58-3.39,2.29-5.13l0,0a47.54,47.54,0,0,1,6.44-1.14c8.09-1,16.21-1.61,24.34-2.23s16.2-1.56,24.33-2c4.19-.21,8.38-.27,12.56-.54s8.26-.56,12.38-.83,8.2-.6,12.29-.9,8.48-.55,12.7-1.07,8.29-1.14,12.45-1.53,8.19-.67,12.3-.89c8.73-.46,17.47-.64,26.21-1Q400,413,412.47,411.8c8.33-.8,16.7-1.36,25.06-1.55,6.84-.16,13.66-.14,20.49.24,3.26.18,6.52.34,9.77.55,3.81.25,7.59.7,11.39,1.08,2.39.24,5.11-1.16,6.74-2.79a9.53,9.53,0,0,0,0-13.48c-1.62-1.62-4.36-3-6.74-2.79-16.56,1.73-33.18,2.78-49.77,4.16-8.52.71-17,1.59-25.56,2s-17.09,1-25.66,1.19c-8.24.2-16.48.28-24.71.66-4.17.2-8.32.55-12.47,1-4.33.47-8.64.78-13,.93-8.43.28-16.86.44-25.29.7-8.19.25-16.39.15-24.57.47A239.52,239.52,0,0,0,244,408a131.35,131.35,0,0,0-15.61,3.42,21,21,0,0,0-5.78,2.73,29.12,29.12,0,0,0-4.12,3.69,50.78,50.78,0,0,1-4.87,4.33,71.2,71.2,0,0,0-6.64,5.5l-.86.83.2-.73c.54-2,1.21-4.06,1.75-6.11a23.12,23.12,0,0,0,.72-4.6,8.91,8.91,0,0,0-1-4,10.4,10.4,0,0,0-1.55-2.16c-1.13-1.41-3.31-2.21-4.94-2.77a28.28,28.28,0,0,0-3.44-.77c-4-.83-8.14-1.37-12.23-1.87-2.36-.29-4.72-.58-7.07-.89-4.66-.66-9.3-1.35-14-2l.3,0c-4.78-.69-9.48-1.8-14.19-2.84a6.77,6.77,0,0,0-8.19,4.65,6.33,6.33,0,0,0-.22,1.68,6.61,6.61,0,0,0,4.88,6.51Zm15.93-10.24.71.09-.71-.09Zm14.35,2,.57.08-.57-.08Zm53,21.61.18-.14-.18.14Zm1.25-.77.24-.1-.24.1Z"/><path class="cls-9" d="M380.66,741.37l-2-1.55a9.86,9.86,0,0,0-5-1.35c-2.89-.37-5.66.32-8.46,1-1.37.33-2.78.54-4.18.75-3.31.38-6.63.55-9.95.83-4,.34-8,.7-12,1.17q-12,1.38-23.93,2.92c-9,1.15-18,2.58-27,4.2q-11.69,2.11-23.42,4c-12.73,2-25.54,3.73-38.23,6q-17.87,3.26-35.85,5.81c-2.87.37-5.75.72-8.63,1-3.85.39-7.75.44-11.62.54a7,7,0,1,0,0,13.92c3.78-.08,7.56-.19,11.34-.44,3.33-.23,6.67-.67,10-1,6.19-.7,12.38-1.48,18.56-2.18,7.59-.86,15.14-2.12,22.68-3.35,6.6-1.08,13.23-2,19.85-2.94,9.53-1.21,19.1-2.17,28.63-3.44,10.32-1.38,20.55-3.34,30.86-4.79q13.76-1.8,27.55-3.44c4.83-.57,9.69-1,14.56-1.3a78,78,0,0,1,11.46,0l1.72.32a35.34,35.34,0,0,0,4.19.5,22.49,22.49,0,0,0,4.53-.58,9.93,9.93,0,0,0,4.38-16.6Z"/><path class="cls-9" d="M535,741.66c.56,7.77,1.85,15.45,3,23.16.26,2,.52,4,.78,6.06l.44,3.31a12.46,12.46,0,0,0,20.83,5.5c2.08-2.08,4-5.74,3.65-8.81-1.08-8.5-2.24-17-2.48-25.56-.1-3.6-.15-7.21-.24-10.82,0-1.63-.1-3.26-.15-4.89,0-1.06-.06-2.11-.15-3.17a25.73,25.73,0,0,0-.68-4.31,31,31,0,0,0-1.83-4.42,12,12,0,0,0-16.37-4.29l-2.42,1.87a12,12,0,0,0-3.07,5.28c-1.55,4-1.39,8.28-1.45,12.47q0,1,0,2.07c0,2.18.06,4.37.22,6.55Z"/><path class="cls-9" d="M538,668.82c0,2.42.05,4.85.13,7.27,0,1.14.17,2.26.32,3.39a14,14,0,0,0,1.75,6l0,.08a7.52,7.52,0,0,0,12.08,2l1.17-1.52a7.54,7.54,0,0,0,1-3.8,37.74,37.74,0,0,0,.37-5.19c0-1.84,0-3.68.05-5.52.15-3.73.42-7.42.85-11.12q.92-6.56,1.82-13.11c.32-2.33.61-4.67.89-7q.13-.49.27-1a42.43,42.43,0,0,0,1.14-6.5c.1-.82.12-1.66.15-2.48a17.06,17.06,0,0,0,.06-2.37c-.12-.89-.24-1.78-.36-2.66a10,10,0,0,0-19.33,0,10.2,10.2,0,0,0-.36,2.77c0,.4,0,.8,0,1.19s0,1,0,1.45c-.06,1.08-.15,2.17-.14,3.26,0,2.13.2,4.24.09,6.36-.13,2.49-.55,5-.82,7.46-.24,2.26-.43,4.52-.62,6.78-.36,4.44-.58,8.89-.58,13.34,0,.3,0,.6,0,.9Z"/><path class="cls-9" d="M549.64,586.31c.15.79.29,1.57.43,2.35.26,2.87.33,5.75.43,8.63a7.52,7.52,0,0,0,15,0c-.11-3-.26-6.08-.12-9.12.06-1.2.15-2.4.28-3.59a16.23,16.23,0,0,0-.63-6.62,8,8,0,0,0-15.33,0,17.12,17.12,0,0,0-.66,4.08q0,.14,0,.27a21.74,21.74,0,0,0,.55,4Z"/><path class="cls-3" d="M141.46,415.69a4,4,0,0,0,5.91,2.4,4.25,4.25,0,0,0,1.84-2.4c.84-2.28.73-4.85.83-7.26q.13-2.94.24-5.89c.16-4.22.32-8.43.41-12.65.17-8.23.26-16.44.41-24.67.16-8.78.38-17.56.92-26.33.25-4.12.55-8.24,1-12.34.48-4.4,1-8.79,1.28-13.2.43-7,.93-14,1.36-21,.21-3.36.32-6.72.53-10.08q.36-5.73.82-11.46a3.54,3.54,0,0,0-6-2.5,3.7,3.7,0,0,0-1,2.5c-.32,4-.61,7.92-.82,11.88s-.33,7.83-.61,11.73-.59,7.68-.88,11.53-.53,7.53-1,11.28c-.63,4.45-1.32,8.9-1.91,13.37-.57,4.25-.85,8.55-1.2,12.83-.7,8.55-1,17.14-1.36,25.71-.34,7.61-.64,15.23-.8,22.84q-.13,5.74-.26,11.48-.07,2.75-.15,5.49c0,.93-.09,1.87-.09,2.81a10.65,10.65,0,0,0,.61,3.93Z"/><path class="cls-3" d="M489.14,404.33a4.17,4.17,0,0,0,1.08,1.86,4.21,4.21,0,0,0,7.19-3c0-2-.12-4-.16-5.94s-.06-3.73-.07-5.6c0-3.76-.06-7.52-.07-11.28,0-7.81,0-15.63.24-23.43.28-8.32.41-16.65.79-25,.19-4.11.45-8.21.64-12.31s.3-8,.39-11.94q.48-18.52.63-37a3.32,3.32,0,1,0-6.63,0c-.07,8.55-.13,17.1-.37,25.65-.23,8.14-.37,16.29-.86,24.42-.24,4.07-.57,8.12-.86,12.18s-.49,8.32-.68,12.47c-.35,8-1,16-1.19,24C489,375,489,380.66,489,386.3c0,2.91,0,5.83-.08,8.75,0,1.33-.05,2.66-.08,4,0,.63,0,1.24,0,1.87a25.22,25.22,0,0,0,.32,3.41Z"/><path class="cls-3" d="M155.62,270.75c4.77.93,9.55,1.68,14.38,2.22,3.89.43,7.81.62,11.72.85,8.33.48,16.65,1.1,25,1.42,8.14.3,16.3.31,24.44.39q12.49.14,25,0c16.46-.24,32.91-.93,49.36-1.24,8.28-.16,16.56-.21,24.84-.2s16.37,0,24.55.18c8.38.23,16.77.37,25.15.22s16.62-.39,24.93-.52c8.47-.12,16.94-.12,25.41-.37q12.27-.35,24.55-.52c6.44-.08,12.87-.11,19.31,0,3.15.06,6.3.11,9.44.24,3.35.14,6.68.37,10,.46a3.39,3.39,0,0,0,0-6.79c-8.14-.47-16.26-1.05-24.41-1.33s-16.19-.2-24.29-.14c-8.35.07-16.71.21-25.06.23-8.16,0-16.32,0-24.48.06q-12.57.12-25.13-.15c-8.24-.17-16.47-.4-24.71-.41-16.56,0-33.13.24-49.67,1.05-8.12.39-16.23,1-24.35,1.44-8.46.46-16.94.76-25.41,1-8.12.23-16.26.34-24.39.18-8.41-.17-16.8-.59-25.18-1.32-5.2-.45-10.4-.93-15.61-1.41-5-.45-9.91-1-14.85-1.58-2.84-.44-5.65-.93-8.47-1.47a4.1,4.1,0,0,0-3,.39,3.9,3.9,0,0,0-1.8,2.34,3.68,3.68,0,0,0-.13,1,3.85,3.85,0,0,0,2.86,3.84Z"/><path class="cls-3" d="M143,420.51c4.76.17,9.53.29,14.3.59,4.38.28,8.75.75,13.14,1,8.47.54,17,.56,25.46.6.72,0,1.45,0,2.17,0a4.16,4.16,0,0,0,0-8.32c-4.41-.28-8.85-.27-13.27-.35-4.19-.08-8.38-.19-12.56-.44-4.41-.26-8.81-.66-13.21-1-4.59-.34-9.2-.48-13.8-.64l-2.22-.08a4.32,4.32,0,0,0,0,8.64Z"/><path class="cls-3" d="M241.95,429.56c4.88-.28,9.75-.54,14.64-.73,4.28-.17,8.55-.44,12.83-.62,9-.39,18.06-.65,27.07-1.35,4.34-.34,8.7-.59,13-1s8.9-.94,13.36-1.39c9-.92,18-1.28,27.05-1.83s17.94-1.17,26.91-1.66,18.07-1,27.11-1.44,18.19-.79,27.28-1.26c8.87-.46,17.77-.54,26.63-1.27,6.12-.51,12.22-1.26,18.33-1.76,2.83-.23,5.67-.46,8.49-.78,1.37-.15,2.73-.33,4.09-.5,1-.13,1.92-.25,2.87-.39a11.17,11.17,0,0,0,2.78-.94,3.91,3.91,0,0,0,1.8-4.43,4,4,0,0,0-4.82-2.73c-1,.23-2.12.35-3.18.49l.36,0c-4,.53-8.05.8-12.09,1.08-4.43.31-8.86.7-13.3,1.06-8.91.73-17.82,1-26.74,1.32-4.29.17-8.58.46-12.87.7-4.56.25-9.12.46-13.68.7-9.07.48-18.13,1.18-27.2,1.7-9.32.54-18.64,1.22-28,1.72-8.84.48-17.68.84-26.51,1.45-4.34.3-8.66.71-13,1.12-4.58.43-9.15.73-13.74,1-8.85.52-17.69,1-26.56,1.27q-16.51.47-33,1.44a4.72,4.72,0,0,0-3.22,1.33,4.55,4.55,0,0,0,3.22,7.77Z"/><path class="cls-3" d="M131.69,505.58a3.45,3.45,0,0,0,1.24,1.24,3.3,3.3,0,0,0,2.65.35,7.31,7.31,0,0,0,2.32-1.34c.35-.31.69-.63,1-.95l2-1.93c1.36-1.29,2.77-2.53,4.18-3.75,2.94-2.54,5.84-5.12,8.66-7.79s5.53-5.29,8.13-8.07c1.35-1.44,2.7-2.87,3.93-4.41,1.44-1.8,2.82-3.64,4.18-5.49,4.62-6.32,8.9-12.87,13.08-19.49,2.22-3.51,4.38-7,6.3-10.72,1.84-3.53,3.46-7.18,5.17-10.78,1.35-2.84,2.68-5.69,4-8.52A4,4,0,0,0,199,421a3.77,3.77,0,0,0-4.63-2.63,3.66,3.66,0,0,0-2.25,1.73c-1.79,3.74-3.57,7.48-5.42,11.19-1.77,3.54-3.53,7.09-5.54,10.5s-4.31,6.88-6.5,10.29-4.33,6.81-6.58,10.16c-2.68,4-5.44,7.95-8.35,11.79-4.29,5.11-9,9.89-13.74,14.57-2.28,2.24-4.63,4.39-7,6.5-1.11,1-2.24,1.95-3.36,2.93l-1.89,1.64a7.78,7.78,0,0,0-2.06,2.41,4.19,4.19,0,0,0-.46,1.82,3.22,3.22,0,0,0,.46,1.65Z"/><path class="cls-3" d="M133.71,510.7a3.93,3.93,0,0,0,5.32,1.39c3.69-2.15,7.33-4.4,11.08-6.45,1.73-.94,3.48-1.82,5.19-2.79s3.63-2.13,5.43-3.21c3.47-2.06,7-4.07,10.36-6.27s6.77-4.43,10.09-6.75c3.57-2.49,7.09-5.07,10.47-7.83,3.21-2.62,6.32-5.34,9.38-8.14,6-5.45,11.9-10.94,17.64-16.63q4-4,7.82-8.23c2.4-2.67,4.65-5.45,6.84-8.3l-.22.29c1.32-1.7,2.64-3.38,3.91-5.11.54-.73,1.07-1.48,1.59-2.23a13,13,0,0,0,1.58-3.16l.09-.16a3.43,3.43,0,0,0-2-5,3.73,3.73,0,0,0-2.64.34,6.74,6.74,0,0,0-2.74,2.27c-.21.28-.42.57-.62.86s-.59.86-.9,1.27c-1.13,1.4-2.36,2.71-3.56,4s-2.34,2.8-3.5,4.2c-2.52,3-5,6-7.7,8.95s-5.72,6-8.7,8.84-5.79,5.61-8.68,8.41c-2.38,2.31-4.74,4.63-7.21,6.83s-5.14,4.44-7.82,6.55c-6.44,4.86-13.21,9.27-20.05,13.55-3.36,2.09-6.81,4-10.19,6.1s-7.16,4-10.67,6.16c-2.71,1.64-5.41,3.31-8.15,4.9a3.92,3.92,0,0,0-1.92,3.39,3.82,3.82,0,0,0,.52,1.93Z"/><path class="cls-3" d="M156,659.51Q156.5,684.26,158,709c.52,8.12.86,16.26,1.28,24.39s.6,16.32,1.19,24.46c.32,4.27.88,8.53,1.54,12.76.32,2,.65,4.07,1,6.1a25.46,25.46,0,0,0,2,7.12,3.72,3.72,0,0,0,4.19,1.7,3.76,3.76,0,0,0,2.59-4.56c-.39-1.62-.63-3.3-.9-4.94s-.48-3-.7-4.52c-1-7.59-1.56-15.2-2.14-22.83-.31-4.07-.52-8.14-.81-12.21s-.64-8.05-1-12.08-.61-8.17-.93-12.25c-.3-3.88-.68-7.75-.92-11.64-.5-8.06-.86-16.12-1.2-24.19-.23-5.59-.39-11.18-.51-16.77a3.44,3.44,0,0,0-6.87-.08s0,.05,0,.08Z"/><path class="cls-3" d="M165.68,786.37a73.68,73.68,0,0,0,12.38,1.77c3.74.14,7.46.05,11.2-.1,7.87-.31,15.7-1.08,23.53-1.9,4-.43,8-1,12-1.54s8-1.1,12-1.79c7.66-1.33,15.3-2.81,23-3.89l7.6-1.05c7.9-1,15.83-1.78,23.72-2.87,7.62-1,15.21-2.24,22.79-3.49,7.36-1.22,14.75-2.25,22.14-3.26,6.44-.82,12.87-1.63,19.31-2.36,3.13-.36,6.26-.72,9.39-1,3.78-.38,7.54-.73,11.29-1.3a3.14,3.14,0,0,0,1.41-.83,3.2,3.2,0,0,0-2.26-5.46c-7.76.59-15.5,1.47-23.24,2.28s-15.39,1.73-23.06,2.82c-6.43.92-12.85,1.82-19.27,2.87-5.82,1-11.67,1.73-17.51,2.52l.22,0c-7.8,1-15.63,1.73-23.43,2.67-8.2,1-16.36,2.15-24.52,3.42-4.43.69-8.85,1.45-13.29,2.07-3.78.47-7.56,1-11.34,1.39s-7.65.79-11.49,1.16-7.94.84-11.91,1.2c-3.76.34-7.55.54-11.33.69a85.08,85.08,0,0,1-11.88-.16c-1.83-.29-3.63-.64-5.44-1a3.9,3.9,0,0,0-2.88.38,3.74,3.74,0,0,0-1.72,2.23,3.54,3.54,0,0,0-.12.94,3.69,3.69,0,0,0,2.74,3.66Zm101.26-8.45.39,0-.39,0Zm.43-.06.53-.07-.53.07Zm24-10,.69-.09-.69.09Z"/><path class="cls-3" d="M162.16,662.38c4.53.13,9,.19,13.56,0l13.21-.52c8.87-.35,17.72-1,26.56-1.61,17.58-1.24,35.08-3.51,52.57-5.6,8.86-1.05,17.71-2.13,26.58-3,4.27-.44,8.53-1,12.8-1.53,4.51-.55,9-1,13.56-1.48,4.27-.43,8.53-.9,12.8-1.24,4.48-.35,9-.66,13.44-1.09,4.25-.4,8.49-.87,12.73-1.3,4-.39,7.92-.75,11.87-1.18a39.64,39.64,0,0,0,4.43-.65c.58-.14,1.16-.27,1.73-.44a12.37,12.37,0,0,0,1.77-.7,4.59,4.59,0,0,0,1.57-1.57,3.54,3.54,0,0,0-.55-4.31,3.59,3.59,0,0,0-4.2-.63,12.45,12.45,0,0,1-1.66.31c-3.84.44-7.71.69-11.56,1-4.2.3-8.41.59-12.62.81-4.36.23-8.73.43-13.1.61s-8.9.49-13.35.83c-4.21.33-8.43.67-12.63,1.13s-8.44,1-12.65,1.53c-8.81,1-17.62,2.1-26.42,3.29l.51-.07c-17.57,2.35-35.18,4.54-52.86,5.91-4.5.35-9,.63-13.49.93-4.24.28-8.46.67-12.69.89-4.43.23-8.86.44-13.3.64s-8.63.44-13,.36l-5.65-.14a4.43,4.43,0,1,0,0,8.86Zm212.18-26.47.5-.07-.5.07ZM272.6,645l-.71.1.71-.1Z"/><path class="cls-3" d="M373.26,639.24q.28,11.54.29,23.1,0,2.3,0,4.6c0,5.83,0,11.67.28,17.49.39,7.51.91,15,1.16,22.53.24,7.19.39,14.37.58,21.56q.19,7.11.14,14.22c0,2.3,0,4.62-.19,6.92-.07,1.07-.17,2.14-.26,3.22-.05.55-.12,1.12-.15,1.67a10.66,10.66,0,0,0,.28,2.86,3.36,3.36,0,0,0,3.25,2.48,3.44,3.44,0,0,0,3.25-2.48c.7-2,.52-4.09.5-6.15q0-2.44,0-4.87c0-3.44-.07-6.87-.16-10.3-.19-7.33-.42-14.65-.52-22s-.32-14.59-.58-21.88c-.14-3.62-.3-7.26-.32-10.89s0-7.38,0-11.07q0-15.51-.34-31a3.6,3.6,0,0,0-7.2-.09s0,.06,0,.09Z"/><path class="cls-3" d="M232,754.33a99.44,99.44,0,0,0,11.67-.63c4.09-.52,8.17-1.07,12.25-1.7,3.66-.56,7.3-1.32,10.95-2,3.4-.61,6.81-1.18,10.22-1.84q5.7-1.1,11.42-2.15c3.43-.63,6.83-1.36,10.26-2s7.1-1.18,10.66-1.74,7.12-1.12,10.69-1.61a80,80,0,0,0,9.07-1.63,2.59,2.59,0,0,0,.62-4.74,2.83,2.83,0,0,0-2-.26h-.06l.24,0-.69.09h0c-6.42.83-12.88,1.46-19.32,2.16-3.37.37-6.74.68-10.11,1.12-3.58.47-7.17,1-10.75,1.46l1-.14c-7,.93-14,2-20.94,3-3.51.52-7,1.08-10.5,1.67-3,.51-6.06.92-9.1,1.33-2.31.29-4.61.56-6.93.77-1.12.1-2.24.21-3.36.23-1.76,0-3.51.09-5.27.1a4.25,4.25,0,1,0,0,8.5Zm14.69-9.49.28,0-.28,0Z"/><path class="cls-3" d="M220,726.16A2.79,2.79,0,0,0,222,727q9.86-1.12,19.73-2.12c6.35-.65,12.68-1.49,19-2.28,6.58-.82,13.17-1.71,19.69-2.93s12.72-2.58,19.09-3.89c5.58-1.14,11.15-2.31,16.78-3.12,2.23-.26,4.46-.49,6.69-.62a66.71,66.71,0,0,0,8.55-.83,3,3,0,0,0-.79-5.84c-1.65.13-3.31.19-5,.36s-3.26.36-4.88.57c-3.24.41-6.47.92-9.68,1.47-6.15,1.06-12.27,2.24-18.4,3.4-4.33.82-8.64,1.7-13,2.44-4.08.7-8.18,1.28-12.27,1.83l.28,0-.8.11h0c-7.06.93-14.12,1.84-21.18,2.8l.6-.08q-12.22,1.53-24.46,2.9A3.2,3.2,0,0,0,220,722a2.93,2.93,0,0,0,0,4.15Zm47.13-10.63.52-.07-.53.07Zm-20.38,2.69-.21,0,.21,0Z"/><path class="cls-3" d="M208.61,697a4.1,4.1,0,0,0,1.88,2.45,4.41,4.41,0,0,0,3.16.41c16.28-2.66,32.57-5.33,48.91-7.64l-1,.13c16.56-2.22,33.13-4.35,49.74-6.1,2.73-.28,5.45-.56,8.19-.75a49.39,49.39,0,0,0,9.45-1.1,4,4,0,0,0-1.07-7.93,51.14,51.14,0,0,0-6.12.49c-2,.24-4.05.46-6.08.7l-12,1.43c-8.47,1-16.91,2.2-25.35,3.42-3.76.54-7.52,1.11-11.28,1.64L253.22,686l1-.14c-6.66.89-13.33,1.68-20,2.54-7.62,1-15.18,2.31-22.75,3.55a4,4,0,0,0-2.45,1.88,4.12,4.12,0,0,0-.56,2.08,4,4,0,0,0,.15,1.08Z"/><path class="cls-3" d="M523.12,568.61a6.38,6.38,0,0,0,4.7,6.17,6.47,6.47,0,0,0,7.88-4.47,63.1,63.1,0,0,0,1.58-10.06c.3-2.78.41-5.59.59-8.38q.54-8.36,1.44-16.7c1.25-11.5,2.39-23,3.85-34.51,1.46-10.08,3.39-20.08,5.17-30.11.89-5.05,1.83-10.1,2.55-15.19A131.71,131.71,0,0,0,552.14,438a4.38,4.38,0,1,0-8.75,0c0,2.48-.1,4.93-.23,7.4-.09,1.79-.32,3.57-.54,5.35-.89,5.49-2.17,10.89-3.39,16.32-1.35,6-2.74,12-4.09,17.93-1.23,5.49-2.5,11-3.49,16.52-1.06,5.91-2,11.84-3,17.76-1.39,8.45-2.78,16.9-3.71,25.41-.42,3.8-.69,7.61-1,11.42-.15,2-.3,4-.48,6-.17,1.78-.38,3.53-.38,5.31,0,.4,0,.8,0,1.2Zm20.08-68.34,0-.24,0-.12,0,.35Z"/><path class="cls-3" d="M524.73,571.49a6.36,6.36,0,0,0,4.21,1.75c5.47.54,10.93.81,16.43.84,4.91,0,9.83-.23,14.74-.35,10.47-.25,20.94-.47,31.41-.72s21-.24,31.55-.5q8.13-.2,16.26-.54c5.23-.21,10.46-.36,15.68-.7,5.41-.35,10.82-.79,16.23-1.1s10.76-.44,16.15-.65,10.75-.59,16.12-1,11-.75,16.45-1.2c5.24-.43,10.46-1,15.7-1.39s10.57-.66,15.86-.89l15.9-.69c5.23-.23,10.46-.29,15.69-.41,6.62-.16,13.2-.63,19.8-1.15,3.18-.26,6.35-.51,9.53-.69,3.46-.19,6.93-.34,10.38-.64a4.29,4.29,0,0,0,2.88-1.2,4.07,4.07,0,0,0-2.88-7c-5.23.3-10.46.55-15.69.79s-10.39.6-15.59.83c-5.36.24-10.73.34-16.1.54s-10.67.5-16,.68c-10.71.35-21.42.65-32.12,1.26s-21.45,1.32-32.17,1.92-21.46.74-32.17,1.61-21.43,1.46-32.17,1.92c-20.84.9-41.71-.06-62.56-.43-6.44-.11-12.88-.13-19.32-.22-6.68-.09-13.35-.23-20-.88a5.72,5.72,0,0,0-4.21,1.74,6,6,0,0,0,0,8.43Z"/><path class="cls-3" d="M546.1,442.72c5.29,0,10.58.12,15.88.12s10.47-.22,15.72-.41c5-.18,10-.47,15-.7,5.29-.23,10.58-.44,15.86-.69,8.55-.39,17.07-1.25,25.61-1.8,3.85-.25,7.71-.36,11.57-.39,2,0,4,0,6,0,2.37,0,4.89.21,7.16-.55a5,5,0,0,0-1.33-9.79c-2.45-.06-4.89.06-7.34.14s-4.85.14-7.28.22c-5.06.17-10.12.4-15.17.77-10.51.78-21,1.21-31.57,1.67-16.71.73-33.41,1.68-50.14,1.7a4.86,4.86,0,0,0,0,9.72Z"/><path class="cls-3" d="M690.93,448.79c10.7-.54,21.39-1.31,32.09-1.77,5.2-.23,10.39-.36,15.59-.63s10.27-.61,15.41-.76c10.61-.3,21.21-.95,31.81-1.3,5.33-.17,10.66-.22,16-.34,5.06-.11,10.11-.38,15.17-.46,2.2,0,4.41,0,6.61-.05a29.26,29.26,0,0,0,8.08-.68,4.41,4.41,0,0,0,3.2-4.2,4.34,4.34,0,0,0-1.28-3.07,4.57,4.57,0,0,0-3.07-1.28,64.37,64.37,0,0,0-7.81,0c-2.39.11-4.78.25-7.17.35-5,.23-10,.33-15.07.37q-16.2.15-32.39.24c-5.12,0-10.26,0-15.39,0-5.33,0-10.66.17-16,.26-5.15.08-10.3.08-15.46.3s-10,.64-15,1-10.2.64-15.31.9a5.54,5.54,0,0,0,0,11.09Z"/><path class="cls-3" d="M817.31,553.23a4.05,4.05,0,0,0,.56,2.08,4.17,4.17,0,0,0,2.46,1.9c2,.56,4.67-.66,5.08-2.88a65.74,65.74,0,0,0,.56-6.85c.15-2,.41-3.93.66-5.89l-.15,1.12c1.27-9.38,2.27-18.77,3.28-28.18.48-4.5,1-9,1.37-13.49.39-4.78.61-9.58.87-14.37.4-7.32.72-14.64,1.21-22,.52-7.88.86-15.77,1-23.66a4.82,4.82,0,1,0-9.63,0c-.13,10-.62,19.89-.84,29.85-.21,9.21-.26,18.41-.78,27.6-.3,5.36-.79,10.69-1.31,16-.5,5.11-1,10.22-1.66,15.32-.58,4-1.29,7.9-1.8,11.87q-.37,2.79-.61,5.6c-.13,1.5-.3,3-.3,4.52,0,.47,0,.93.06,1.39Z"/><path class="cls-3" d="M653.94,438.88a5,5,0,0,0,7.08,0c1.44-1.61,2.89-3.2,4.47-4.67,1.27-1.18,2.62-2.27,4-3.35,9.51-7.13,19.31-13.85,29-20.69,4.8-3.38,9.53-6.88,14.34-10.25,5-3.52,10-7,15-10.66,4.44-3.22,8.71-6.68,13-10.06,6.35-4.85,12.73-9.69,19.24-14.33,3.17-2.26,6.28-4.58,9.46-6.83,1.59-1.13,3.18-2.24,4.78-3.36a34.14,34.14,0,0,0,5.61-5,6.4,6.4,0,0,0,1-7.63,6.33,6.33,0,0,0-8.61-2.26c-4.47,2.86-8.07,6.85-11.93,10.46-3.42,3.21-7.3,5.94-10.93,8.9-7.64,6.24-15.31,12.45-23.09,18.5-4.74,3.55-9.64,6.88-14.48,10.32s-9.84,7.14-14.68,10.81-9.66,6.95-14.56,10.29S672.85,416,668,419.5c-2.63,1.91-5.23,3.87-7.74,5.95a59.35,59.35,0,0,0-6.32,6.35,5.52,5.52,0,0,0-1.44,3.65,4.8,4.8,0,0,0,1.44,3.44ZM741.17,379l.54-.42-.54.42Z"/><path class="cls-3" d="M689.88,446.52a4.15,4.15,0,0,0,2.93,1.21,4.39,4.39,0,0,0,2.93-1.21c4.22-3.54,8.47-7,12.67-10.57s8.14-6.91,12.23-10.35c1.9-1.59,3.85-3.11,5.75-4.71s3.94-3.36,5.94-5c4-3.29,8.08-6.48,12.14-9.7,3.45-2.74,6.87-5.53,10.31-8.28,3.75-2.87,7.61-5.59,11.43-8.36,4-2.9,8-5.79,12.05-8.61s8-5.54,12-8.28c2-1.36,4-2.69,6-4.14,2.32-1.74,4.58-3.56,6.85-5.39l2.17-1.75a20.72,20.72,0,0,0,2.38-2.38,5.11,5.11,0,0,0,.79-6.09,5,5,0,0,0-5.67-2.31,19.22,19.22,0,0,0-4.32,1.93c-1,.64-2,1.32-2.93,2q-3.17,2.16-6.33,4.36c-4.34,3-8.59,6.09-12.67,9.45-3.71,3.06-7.57,5.93-11.23,9s-7.43,6.59-11.16,9.87c-5.44,4.78-10.73,9.74-16.32,14.36-2.85,2.36-5.74,4.67-8.6,7s-5.49,4.56-8.28,6.77c-10.64,8.05-20.82,16.67-31,25.27a3.59,3.59,0,0,0-1.21,2.8,4.41,4.41,0,0,0,1.21,3.07Zm64.23-48.08.33-.25-.33.25Z"/><path class="cls-3" d="M773.77,333.72a24.21,24.21,0,0,0,1.42,6.93c1.62,4.33,5,7.68,8.45,10.64a44.12,44.12,0,0,0,5.85,4.2,32.14,32.14,0,0,0,6.12,2.69A35.48,35.48,0,0,0,808,359.75a32.68,32.68,0,0,0,6.81-.81,45.09,45.09,0,0,0,5.77-1.83,47.36,47.36,0,0,0,11.54-6c1.1-.83,2.17-1.67,3.18-2.6.83-.75,1.57-1.59,2.33-2.42a52.7,52.7,0,0,0,4.13-5.34A41.49,41.49,0,0,0,847.14,329a43.93,43.93,0,0,0,1.35-6.05,58.5,58.5,0,0,0,.84-7.1,40.35,40.35,0,0,0-.28-6.48,30.63,30.63,0,0,0-.74-3.84,23.26,23.26,0,0,0-1.09-3,23.6,23.6,0,0,0-1.81-3.64,26.72,26.72,0,0,0-2.62-3.45,21.55,21.55,0,0,0-2.09-2,25,25,0,0,0-3.41-2.51,21.67,21.67,0,0,0-6.74-2.44,52.25,52.25,0,0,0-7.28-.88,49.59,49.59,0,0,0-13.58,1.3,42,42,0,0,0-5.86,1.76,29.63,29.63,0,0,0-6.59,3.3,47.4,47.4,0,0,0-9.91,9.15,62,62,0,0,0-4.37,6.19c-.42.68-.8,1.38-1.17,2.09a39.53,39.53,0,0,0-3.1,4.17,31.45,31.45,0,0,0-4.27,11.74,33.19,33.19,0,0,0-.68,5.56c0,.3,0,.59,0,.88Zm12.29-6.06a40.49,40.49,0,0,1,2.15-7.73,45.54,45.54,0,0,1,4.88-8.22,53,53,0,0,1,7.57-7.58,33.84,33.84,0,0,1,5-3,48,48,0,0,1,9.75-2.51,51.17,51.17,0,0,1,10.94,0,27,27,0,0,1,4.52,1.14,21.26,21.26,0,0,1,2.34,1.43,25.19,25.19,0,0,1,3,3,22.66,22.66,0,0,1,1.57,2.72,24.32,24.32,0,0,1,1.17,4.11,34.75,34.75,0,0,1,.14,5c-.09,1.61-.25,3.22-.44,4.82a55.75,55.75,0,0,1-2.69,10.93,47.62,47.62,0,0,1-2.44,4.8,46.4,46.4,0,0,1-3,4.48,33.55,33.55,0,0,1-4.31,4.36,49.76,49.76,0,0,1-8.25,4.71c-1.11.46-2.22.88-3.38,1.24a2.16,2.16,0,0,0-1-.46,74.08,74.08,0,0,1-13.7-3.78,31.38,31.38,0,0,1-5-3.06,43.79,43.79,0,0,1-5.79-5.89,26.6,26.6,0,0,1-2.17-3.71,22.92,22.92,0,0,1-.83-3.12,20.52,20.52,0,0,1,0-3.7Zm43.81,14.2.18-.24-.18.24Z"/><path class="cls-3" d="M218,394.63a6.19,6.19,0,0,0,4.54,1.88c9.17-.78,18.34-.77,27.53-1,4.72-.12,9.42-.45,14.13-.78s9.21-.53,13.82-.71,9.37-.26,14.05-.42,9.24-.55,13.86-.84c9.4-.6,18.82-1.28,28.14-2.73,6.23-1,12.47-2,18.71-3,5.67-.72,11.36-1.3,17-2.22a2.36,2.36,0,0,0,1.74-2.29,2.39,2.39,0,0,0-2.37-2.38c-4.74.24-9.48.59-14.22.87s-9.57.52-14.35.79c-4.49.26-9,.66-13.48.83-4.76.19-9.53.31-14.29.41-9.22.19-18.45.29-27.68.19s-18.44.1-27.66-.13c-5.74-.14-11.46-.33-17.2-.32-5.92,0-11.84.34-17.74.84a6.81,6.81,0,0,0-4.54,1.88,6.43,6.43,0,0,0,0,9.08Z"/><path class="cls-3" d="M217.21,365.87a6.34,6.34,0,0,0,4.6,1.91c10.75-.73,21.52-.83,32.28-1.37s21.43-1.67,32.11-3.11c10.42-1.35,20.88-2.23,31.33-3.34s21-2.13,31.61-2.64c3.53-.17,7.05-.17,10.57-.64a4.89,4.89,0,0,0,3.16-1.31,4.47,4.47,0,0,0,0-6.32,4.69,4.69,0,0,0-3.16-1.31,53.2,53.2,0,0,0-7.85,0c-2.35.18-4.69.43-7,.73-4.66.59-9.3,1.29-13.95,1.93-10.86,1.36-21.77,2.07-32.69,2.73-5.42.33-10.84.6-16.26.91s-11.09.5-16.63.46c-6.85-.05-13.7-.36-20.56-.44-7.65-.1-15.28.17-22.92.69a6.83,6.83,0,0,0-4.6,1.9,6.51,6.51,0,0,0,0,9.19Z"/><path class="cls-3" d="M203.31,318.13c5.81-.19,11.62-.57,17.43-.78,5.33-.2,10.67-.12,16-.06,10.46.12,20.92.23,31.37-.41,5.34-.33,10.67-.72,16-1.25s10.73-1.3,16.11-1.84a240.57,240.57,0,0,1,32-1.07c5.25.17,10.5.28,15.75.24s10.49,0,15.73,0q7.52.08,15-.48c2.37-.18,4.74-.44,7.11-.66,2.91-.28,5.81-.55,8.7-1a30.74,30.74,0,0,0,4.11-.92,5.5,5.5,0,0,0-1.46-10.81c-5.18,0-10.34.39-15.52.39-4.8,0-9.59,0-14.39.06-10.34.14-20.69.72-31,1.68-4.18.39-8.36.81-12.54,1.23-4.4.44-8.77,1-13.15,1.62-10.46,1.34-21,2.22-31.48,3.05-5.25.42-10.5.82-15.76,1.14s-10.6.48-15.9.63c-7.22.19-14.45.3-21.67.77-7.5.48-15,1.14-22.51,1.4a3.53,3.53,0,0,0,0,7.06Z"/><path class="cls-3" d="M575.84,479.87a8.22,8.22,0,0,0,2,3.81,10.22,10.22,0,0,0,1.62,1.4,11.58,11.58,0,0,0,2.36,1.15,8.37,8.37,0,0,0,2.15.33,7.84,7.84,0,0,0,2.17-.23,9,9,0,0,0,4.08-2.11,7.34,7.34,0,0,0,2.11-3.61,6.92,6.92,0,0,0-1.1-5.49,4.69,4.69,0,0,0-2.09-1.74,11.55,11.55,0,0,0-.78-.92,7.57,7.57,0,0,0-2.15-1.5,6.3,6.3,0,0,0-3.53-.69,8.51,8.51,0,0,0-1.69.32,7.16,7.16,0,0,0-2.39,1.35,8.2,8.2,0,0,0-2.95,6.31,7.29,7.29,0,0,0,.18,1.63Z"/><path class="cls-3" d="M625.05,480.35c3.29,0,6.59,0,9.88,0,3.09,0,6.19.12,9.28.15s6.25,0,9.38-.19,6.35-.36,9.53-.48c6.21-.23,12.43-.1,18.64,0s12.28.15,18.42.21c12.41.12,24.82-.12,37.23-.12,4.38,0,8.75.09,13.12.17s8.82.19,13.21.09a3.3,3.3,0,0,0,0-6.6c-3.41.17-6.81.37-10.22.41-3,0-5.95,0-8.92-.13-6.32-.18-12.63-.38-19-.45-12.47-.14-24.94-.06-37.42,0-6.25.05-12.5.06-18.75.17-3.06.05-6.11.17-9.16.4s-6.1.64-9.16.87c-4.23.31-8.47.39-12.71.48-4.47.1-8.93.08-13.41.08a2.44,2.44,0,0,0,0,4.87Z"/><path class="cls-3" d="M570.41,511.43a6.48,6.48,0,0,0,.32,1.1,8.54,8.54,0,0,0,2,3,7.63,7.63,0,0,0,3,1.82,6.7,6.7,0,0,0,4.51-.29,3.71,3.71,0,0,0,2.73-3.59,3.78,3.78,0,0,0,0-.6c.3-.2.59-.42.87-.65a5.5,5.5,0,0,0,1.64-3.38,5.91,5.91,0,0,0-.84-3.36,5.64,5.64,0,0,0-1.24-1.42,7.7,7.7,0,0,0-1.47-1,9.1,9.1,0,0,0-3.29-1,7.47,7.47,0,0,0-5.08,1.24,8.1,8.1,0,0,0-2.28,2.44,8.45,8.45,0,0,0-1,3.81c0,.07,0,.15,0,.23a9.81,9.81,0,0,0,.2,1.62Zm9.4-3.84.25-.19-.25.19Z"/><path class="cls-3" d="M568.31,538.9a8.54,8.54,0,0,0,2.15,3.66,7.32,7.32,0,0,0,1.51,1.11,8.75,8.75,0,0,0,9.73-.8,9.38,9.38,0,0,0,2.43-3.86,8.81,8.81,0,0,0,.41-2.56,5.86,5.86,0,0,0-.85-2.78,3.39,3.39,0,0,0-1.54-1.43,3.63,3.63,0,0,0-.56-.69,8.68,8.68,0,0,0-2.12-1.52c-2.78-1.39-6.5-1.44-8.89.73a7.36,7.36,0,0,0-1.23,1.41,12.2,12.2,0,0,0-1.06,2.19,7.45,7.45,0,0,0-.33,2,3.49,3.49,0,0,0,0,.41,8.61,8.61,0,0,0,.37,2.15Zm7.5-3.42.1-.07-.1.08Zm.91.49.22.06v0l-.15,0-.07,0Zm.16,1h0Zm0-.2h0Z"/><path class="cls-3" d="M620.81,510.88c8,.32,16.08.24,24.13.21,7.74,0,15.47.05,23.21.06,8,0,15.92,0,23.88-.19s15.74-.33,23.61-.36c6.23,0,12.45.1,18.68.3,3,.1,5.91.24,8.87.35a71.78,71.78,0,0,0,9.92.07,3.74,3.74,0,0,0,2.48-1,3.5,3.5,0,0,0,0-5,3.71,3.71,0,0,0-2.48-1c-4-.38-8.05-.34-12.08-.39-3.85-.05-7.7-.15-11.55-.21-7.91-.13-15.82-.1-23.73-.12-15.66,0-31.32-.15-47-.18q-9.19,0-18.38,0c-6.54.06-13.06.08-19.59-.17a3.8,3.8,0,0,0,0,7.59Z"/><path class="cls-3" d="M623.36,539.33c6.25-.07,12.51-.18,18.75-.51q8.78-.47,17.54-1.16c5.64-.45,11.29-.68,16.95-.93,5.47-.24,11-.34,16.42-.43q16.94-.28,33.88-.2c4.87,0,9.73.08,14.59.09,2.36,0,4.72-.07,7.08-.24,1.16-.08,2.31-.21,3.46-.36a14.63,14.63,0,0,0,2.19-.39,17.17,17.17,0,0,0,2.36-.92,2.37,2.37,0,0,0,1.09-2.68,2.39,2.39,0,0,0-1.09-1.41,2.56,2.56,0,0,0-1.82-.24l-.23,0q-4,.44-8,.69c-2.77.17-5.55.19-8.33.21q-8.23.07-16.46.11c-11.17,0-22.34,0-33.51.14q-8.79.15-17.58.48c-2.73.1-5.47.2-8.2.35s-5.65.37-8.48.57c-4.72.33-9.48.49-14.21.67-5.48.21-11,.3-16.43.37a2.87,2.87,0,1,0,0,5.73Z"/></g></g></g></svg>